<?xml version="1.0" encoding="utf-8"?>
<!-- Generator: Adobe Illustrator 16.0.0, SVG Export Plug-In . SVG Version: 6.00 Build 0)  -->
<!DOCTYPE svg PUBLIC "-//W3C//DTD SVG 1.1//EN" "http://www.w3.org/Graphics/SVG/1.1/DTD/svg11.dtd">
<svg version="1.1" id="Layer_1" xmlns="http://www.w3.org/2000/svg" xmlns:xlink="http://www.w3.org/1999/xlink" x="0px" y="0px"
	 width="330.821px" height="146.625px" viewBox="0 0 330.821 146.625" enable-background="new 0 0 330.821 146.625"
	 xml:space="preserve">
<polygon fill="#FFFFFF" points="12.037,125.29 4.422,133.571 4.422,125.29 0,125.29 0,146.282 4.422,146.282 4.422,137.872 
	12.005,146.282 17.59,146.282 8.057,135.718 17.688,125.29 "/>
<polygon fill="#FFFFFF" points="32.829,125.29 25.215,133.571 25.215,125.29 20.792,125.29 20.792,146.282 25.215,146.282 
	25.215,137.872 32.798,146.282 38.381,146.282 28.849,135.718 38.48,125.29 "/>
<polygon fill="#FFFFFF" points="59.831,125.29 59.831,133.875 51.42,133.875 51.42,125.29 46.996,125.29 46.996,146.282 
	51.42,146.282 51.42,137.727 59.831,137.727 59.831,146.282 64.254,146.282 64.254,125.29 "/>
<g>
	<defs>
		<rect id="SVGID_1_" width="330.821" height="146.625"/>
	</defs>
	<clipPath id="SVGID_2_">
		<use xlink:href="#SVGID_1_"  overflow="visible"/>
	</clipPath>
	<path clip-path="url(#SVGID_2_)" fill="#FFFFFF" d="M78.557,146.625c-1.436,0-2.845-0.288-4.189-0.855
		c-1.279-0.535-2.43-1.31-3.422-2.301c-0.962-0.961-1.735-2.112-2.3-3.419c-0.558-1.321-0.828-2.691-0.828-4.192
		c0-1.461,0.278-2.861,0.827-4.16c0.566-1.31,1.339-2.461,2.301-3.422c0.992-0.992,2.143-1.766,3.423-2.302
		c1.343-0.567,2.752-0.855,4.188-0.855c1.435,0,2.844,0.288,4.189,0.856c1.279,0.535,2.431,1.309,3.422,2.301
		c1.011,1.011,1.786,2.164,2.303,3.425c0.566,1.341,0.853,2.741,0.853,4.157c0,1.456-0.279,2.826-0.855,4.189
		c-0.515,1.258-1.289,2.41-2.301,3.422c-0.992,0.991-2.143,1.766-3.423,2.302C81.401,146.337,79.992,146.625,78.557,146.625
		 M78.557,129.257c-1.789,0-3.451,0.69-4.678,1.945c-1.242,1.241-1.924,2.894-1.924,4.655c0,1.781,0.682,3.443,1.921,4.681
		c1.23,1.259,2.892,1.949,4.681,1.949s3.45-0.69,4.678-1.946c1.26-1.259,1.952-2.922,1.952-4.684c0-1.743-0.692-3.396-1.949-4.652
		C82.007,129.947,80.346,129.257,78.557,129.257"/>
	<polygon clip-path="url(#SVGID_2_)" fill="#FFFFFF" points="97.28,146.283 97.28,129.142 90.892,129.142 90.892,125.29 
		108.091,125.29 108.091,129.142 101.704,129.142 101.704,146.283 	"/>
	<polygon clip-path="url(#SVGID_2_)" fill="#FFFFFF" points="110.94,146.283 110.94,125.29 126.742,125.29 126.742,129.142 
		115.363,129.142 115.363,133.846 125.488,133.846 125.488,137.698 115.363,137.698 115.363,142.431 126.742,142.431 
		126.742,146.283 	"/>
	<polygon clip-path="url(#SVGID_2_)" fill="#FFFFFF" points="129.592,146.283 129.592,125.29 134.015,125.29 134.015,142.431 
		143.598,142.431 143.598,146.283 	"/>
	<path clip-path="url(#SVGID_2_)" fill="#FFFFFF" d="M154.391,146.597c-3.715,0-6.749-1.768-7.917-4.614l-0.141-0.342l3.966-1.47
		l0.138,0.3c0.66,1.423,2.148,2.274,3.983,2.274c0.932,0,1.736-0.189,2.323-0.548c0.615-0.368,0.913-0.847,0.913-1.463
		c0-1.537-2.265-2.503-3.919-3.208l-0.134-0.065c-1.345-0.581-2.769-1.236-3.867-2.189c-1.33-1.122-2.006-2.51-2.006-4.12
		c0-1.696,0.736-3.233,2.071-4.325c1.307-1.101,3.121-1.707,5.104-1.707c2.97,0,5.497,1.381,6.759,3.694l0.195,0.357l-4.084,1.579
		l-0.142-0.302c-0.217-0.458-0.552-0.807-1.054-1.098c-0.484-0.241-1.095-0.38-1.703-0.38c-1.644,0-2.837,0.833-2.837,1.981
		c0,0.646,0.372,1.232,1.137,1.794c0.791,0.593,1.88,1.085,2.84,1.5l0.419,0.167c2.638,1.14,5.871,2.535,5.871,6.15
		c0,1.826-0.832,3.367-2.407,4.458C158.465,146.037,156.508,146.597,154.391,146.597"/>
	<path clip-path="url(#SVGID_2_)" fill="#FFFFFF" d="M176.563,146.283c-2.1,0-4.073-0.817-5.558-2.302
		c-1.484-1.515-2.3-3.487-2.3-5.557c0-2.07,0.815-4.043,2.298-5.556c0.563-0.535,1.106-0.95,1.654-1.266
		c-0.288-0.603-0.444-1.288-0.444-1.964c0-2.523,2.054-4.578,4.578-4.578c2.509,0,4.55,2.055,4.55,4.578v0.558h-3.624v-0.558
		c0-0.502-0.424-0.926-0.926-0.926c-0.52,0-0.927,0.407-0.927,0.926c0,0.52,0.407,0.926,0.927,0.926h0.557v3.653h-0.356
		c-1.175,0-2.053,0.225-2.767,0.709c-1.153,0.76-1.868,2.099-1.868,3.497c0,2.319,1.888,4.205,4.206,4.205
		c1.776,0,3.371-1.116,3.967-2.745c-0.852-0.616-1.553-0.92-2.11-0.92c-0.16,0-0.311,0.027-0.444,0.079
		c-0.558,0.202-0.961,0.84-1.153,1.202c-0.103,0.181-0.184,0.339-0.266,0.557l-0.172,0.514l-3.312-1.273l0.262-0.523
		c0.103-0.29,0.254-0.623,0.407-0.897c0.743-1.398,1.784-2.383,3.011-2.842c0.548-0.189,1.108-0.284,1.676-0.284
		c0.379,0,0.766,0.043,1.149,0.127c1.028,0.249,2.03,0.733,3.069,1.484c0.835,0.61,1.58,0.933,2.158,0.933
		c0.153,0,0.296-0.023,0.425-0.068c0.81-0.294,1.433-1.398,1.718-2.256l0.158-0.557l3.282,1.226l-0.167,0.499
		c-0.071,0.213-0.287,0.862-0.693,1.504c-0.752,1.391-1.834,2.385-3.115,2.854c-0.513,0.176-1.041,0.264-1.581,0.264
		c-0.32,0-0.653-0.031-0.991-0.092c-0.398,0.987-0.978,1.852-1.724,2.572C180.668,145.465,178.693,146.283,176.563,146.283"/>
	<path clip-path="url(#SVGID_2_)" fill="#FFFFFF" d="M209.581,146.283l-5.647-8.528h-2.815v8.528h-4.423V125.29h9.827
		c0.156,0,1.578,0.021,3.065,0.749c2.103,1.022,3.31,3.021,3.31,5.484c0,0.916-0.162,1.786-0.482,2.585
		c-0.257,0.686-0.666,1.306-1.248,1.888c-0.811,0.784-1.73,1.212-2.477,1.445l5.854,8.842H209.581z M206.55,133.903
		c0.012,0,1.232-0.008,1.92-0.67c0.391-0.392,0.575-0.937,0.575-1.71c0-1.002-0.353-1.624-1.143-2.02
		c-0.688-0.344-1.403-0.361-1.41-0.361h-5.374v4.761H206.55z"/>
	<polygon clip-path="url(#SVGID_2_)" fill="#FFFFFF" points="217.086,146.283 217.086,125.29 232.888,125.29 232.888,129.142 
		221.509,129.142 221.509,133.846 231.634,133.846 231.634,137.698 221.509,137.698 221.509,142.431 232.888,142.431 
		232.888,146.283 	"/>
	<path clip-path="url(#SVGID_2_)" fill="#FFFFFF" d="M243.681,146.597c-3.715,0-6.749-1.768-7.917-4.614l-0.141-0.342l3.966-1.47
		l0.138,0.3c0.66,1.423,2.148,2.274,3.983,2.274c0.932,0,1.736-0.189,2.324-0.548c0.614-0.368,0.912-0.847,0.912-1.463
		c0-1.537-2.266-2.503-3.919-3.208l-0.135-0.065c-1.345-0.581-2.769-1.236-3.866-2.189c-1.33-1.122-2.007-2.51-2.007-4.12
		c0-1.696,0.736-3.233,2.071-4.325c1.308-1.101,3.121-1.707,5.104-1.707c2.97,0,5.497,1.381,6.759,3.694l0.195,0.357l-4.084,1.579
		l-0.143-0.302c-0.217-0.458-0.552-0.807-1.054-1.098c-0.484-0.241-1.095-0.38-1.703-0.38c-1.644,0-2.837,0.833-2.837,1.981
		c0,0.646,0.372,1.232,1.137,1.794c0.791,0.593,1.88,1.085,2.84,1.5l0.419,0.167c2.639,1.14,5.871,2.535,5.871,6.15
		c0,1.826-0.832,3.367-2.406,4.458C247.756,146.037,245.799,146.597,243.681,146.597"/>
	<path clip-path="url(#SVGID_2_)" fill="#FFFFFF" d="M264.329,146.625c-1.436,0-2.845-0.288-4.188-0.855
		c-1.278-0.535-2.431-1.31-3.422-2.301c-0.963-0.961-1.735-2.112-2.301-3.419c-0.558-1.321-0.828-2.691-0.828-4.192
		c0-1.461,0.278-2.861,0.827-4.16c0.566-1.31,1.339-2.461,2.302-3.422c0.991-0.992,2.144-1.766,3.423-2.302
		c1.343-0.567,2.752-0.855,4.188-0.855s2.844,0.288,4.189,0.856c1.278,0.535,2.431,1.309,3.422,2.301
		c1.011,1.011,1.786,2.164,2.303,3.425c0.566,1.341,0.854,2.741,0.854,4.157c0,1.456-0.279,2.826-0.855,4.189
		c-0.515,1.258-1.289,2.41-2.301,3.422c-0.992,0.991-2.144,1.766-3.423,2.302C267.173,146.337,265.765,146.625,264.329,146.625
		 M264.329,129.257c-1.789,0-3.451,0.69-4.678,1.945c-1.242,1.241-1.924,2.894-1.924,4.655c0,1.781,0.682,3.443,1.921,4.681
		c1.229,1.259,2.892,1.949,4.681,1.949s3.45-0.69,4.678-1.946c1.261-1.259,1.952-2.922,1.952-4.684c0-1.743-0.691-3.396-1.948-4.652
		C267.779,129.947,266.118,129.257,264.329,129.257"/>
	<path clip-path="url(#SVGID_2_)" fill="#FFFFFF" d="M290.545,146.283l-5.646-8.528h-2.816v8.528h-4.423V125.29h9.827
		c0.156,0,1.579,0.021,3.065,0.749c2.103,1.022,3.31,3.021,3.31,5.484c0,0.916-0.162,1.786-0.482,2.585
		c-0.257,0.686-0.666,1.306-1.248,1.888c-0.811,0.784-1.729,1.212-2.477,1.445l5.855,8.842H290.545z M287.514,133.903
		c0.013,0,1.232-0.008,1.92-0.67c0.391-0.392,0.575-0.937,0.575-1.71c0-1.002-0.353-1.624-1.143-2.02
		c-0.688-0.344-1.403-0.361-1.41-0.361h-5.374v4.761H287.514z"/>
	<polygon clip-path="url(#SVGID_2_)" fill="#FFFFFF" points="302.728,146.283 302.728,129.142 296.339,129.142 296.339,125.29 
		313.539,125.29 313.539,129.142 307.15,129.142 307.15,146.283 	"/>
	<path clip-path="url(#SVGID_2_)" fill="#FFFFFF" d="M322.906,146.597c-3.715,0-6.749-1.768-7.917-4.614l-0.141-0.342l3.965-1.47
		l0.139,0.3c0.659,1.423,2.148,2.274,3.982,2.274c0.932,0,1.735-0.19,2.325-0.548c0.604-0.363,0.91-0.855,0.91-1.463
		c0-1.538-2.264-2.503-3.918-3.208l-0.134-0.065c-1.346-0.581-2.769-1.236-3.867-2.189c-1.33-1.122-2.006-2.51-2.006-4.12
		c0-1.697,0.736-3.233,2.071-4.327c1.307-1.099,3.121-1.705,5.103-1.705c2.972,0,5.498,1.381,6.761,3.694l0.194,0.357l-4.084,1.579
		l-0.143-0.302c-0.216-0.458-0.551-0.807-1.053-1.098c-0.484-0.241-1.097-0.38-1.703-0.38c-1.645,0-2.837,0.833-2.837,1.981
		c0,0.646,0.372,1.232,1.137,1.794c0.792,0.594,1.881,1.086,2.84,1.5l0.419,0.167c2.638,1.14,5.871,2.536,5.871,6.15
		c0,1.826-0.832,3.367-2.407,4.458C326.981,146.037,325.024,146.597,322.906,146.597"/>
	<path clip-path="url(#SVGID_2_)" fill="#EAA14A" d="M155.521,0.319l-40.003,50.913c0,0,10.144-2.679,18.757,16.461
		c8.613,19.14,19.715,32.539,45.171,26.988c0,0-16.077-3.828-26.605-29.476c0,0-5.933-14.524-15.886-17.694l36.367-47.192H155.521z"
		/>
	<path clip-path="url(#SVGID_2_)" fill="#EAA14A" d="M189.912,0.166l-40.003,50.913c0,0,10.144-2.679,18.757,16.461
		c8.613,19.14,19.715,32.539,45.171,26.988c0,0-16.077-3.828-26.604-29.476c0,0-5.934-14.524-15.887-17.694l36.367-47.192H189.912z"
		/>
	<rect x="115.517" y="0.001" clip-path="url(#SVGID_2_)" fill="#EAA14A" width="16.997" height="16.997"/>
</g>
</svg>
