<?xml version="1.0" encoding="utf-8"?>
<!-- Generator: Adobe Illustrator 16.0.0, SVG Export Plug-In . SVG Version: 6.00 Build 0)  -->
<!DOCTYPE svg PUBLIC "-//W3C//DTD SVG 1.1//EN" "http://www.w3.org/Graphics/SVG/1.1/DTD/svg11.dtd">
<svg version="1.1" id="Layer_1" xmlns="http://www.w3.org/2000/svg" xmlns:xlink="http://www.w3.org/1999/xlink" x="0px" y="0px"
	 width="162.122px" height="133.049px" viewBox="0 0 162.122 133.049" enable-background="new 0 0 162.122 133.049"
	 xml:space="preserve">
<g>
	<defs>
		<rect id="SVGID_1_" width="162.122" height="133.049"/>
	</defs>
	<clipPath id="SVGID_2_">
		<use xlink:href="#SVGID_1_"  overflow="visible"/>
	</clipPath>
	<path clip-path="url(#SVGID_2_)" fill="#0E4C5B" d="M67.934,26.321c-0.414,0.461-0.795,0.938-1.143,1.431
		C66.657,27.941,66.398,28,66.2,27.875c-1.352-0.845-3.31-1.644-4.916-1.671c-4.347-0.074-7.86,3.143-7.86,6.947v28.352
		c0,0.424-0.395,0.769-0.88,0.769h-4.843c-0.486,0-0.881-0.344-0.881-0.769v-25.64c0-6.379,6.407-11.586,14.307-11.586
		c2.403,0,4.664,0.518,6.65,1.364C68.056,25.759,68.134,26.099,67.934,26.321"/>
	<path clip-path="url(#SVGID_2_)" fill="#0E4C5B" d="M95.306,36.878v12.249c0,8.157-6.405,13.36-14.306,13.36
		s-14.307-5.202-14.307-13.36V36.878c0-8.157,6.406-13.36,14.307-13.36S95.306,28.721,95.306,36.878 M88.703,34.717
		c0-5.86-2.582-9.252-7.704-9.252c-5.122,0-7.704,3.392-7.704,9.252v16.571c0,5.656,2.764,9.252,7.704,9.252
		c4.941,0,7.704-3.596,7.704-9.252V34.717z"/>
	<path clip-path="url(#SVGID_2_)" fill="#0E4C5B" d="M146.237,62.487c-7.901,0-14.308-5.203-14.308-13.36V36.878
		c0-8.158,6.406-13.36,14.308-13.36c2.826,0,5.458,0.671,7.678,1.826V10.85c-0.001-0.33,0.142-0.669,0.5-0.756
		c1.763-0.362,3.422-1.039,4.956-2.101c0.486-0.296,1.142,0.169,1.142,0.757l-0.093,41.175c-0.006,2.559-0.691,5.107-2.171,7.194
		C156.345,59.803,152.8,62.487,146.237,62.487 M153.915,31.761c-0.299-3.524-3.617-6.296-7.678-6.296
		c-5.122,0-7.705,3.392-7.705,9.252v16.57c0,5.656,2.765,9.254,7.705,9.254c4.062,0,7.379-2.774,7.678-6.298V31.761z"/>
	<path clip-path="url(#SVGID_2_)" fill="#9B1B44" d="M18.092,107.602c-1.396-1.859-2.151-4.122-2.151-6.447V70.409
		c0-0.887-0.394-2.374-3.032-2.374c-1.205,0-2.444,0.183-3.681,0.544c-1.231,0.359-2.362,0.858-3.363,1.484
		c-1.016,0.636-1.862,1.41-2.516,2.3C2.662,73.3,2.314,74.332,2.314,75.43c0,0.77,0.105,1.38,0.323,1.864
		c0.213,0.48,0.476,0.857,0.78,1.119c0.311,0.271,0.645,0.445,0.992,0.521c0.286,0.063,0.495,0.093,0.654,0.093
		c0.629,0,1.165-0.115,1.592-0.343c0.362-0.192,0.692-0.397,0.987-0.613l0.773-0.568c0.129-0.094,0.271-0.139,0.445-0.139
		c0.165,0,0.353,0.042,0.556,0.125c0.198,0.081,0.387,0.214,0.561,0.396c0.182,0.19,0.344,0.455,0.482,0.788
		c0.133,0.326,0.201,0.745,0.201,1.244c0,0.726-0.138,1.351-0.41,1.86c-0.281,0.526-0.647,0.97-1.087,1.32
		c-0.446,0.354-0.964,0.621-1.54,0.796c-0.594,0.18-1.19,0.271-1.774,0.271c-0.911,0-1.738-0.156-2.46-0.466
		c-0.719-0.308-1.337-0.736-1.836-1.273c-0.503-0.54-0.89-1.183-1.151-1.91C0.136,79.772,0,78.969,0,78.128
		c0-1.629,0.306-3.08,0.907-4.313c0.605-1.237,1.47-2.319,2.573-3.217c1.124-0.915,2.495-1.688,4.076-2.3
		c1.609-0.621,3.417-1.122,5.377-1.488c1.975-0.372,4.12-0.637,6.374-0.791c2.265-0.156,3.355-0.234,5.798-0.234
		c5.91,0,10.292,0.918,13.025,2.731c2.688,1.781,3.994,4.31,3.994,7.729c0,0.838-0.093,1.617-0.277,2.314
		c-0.188,0.708-0.43,1.356-0.72,1.927c-0.291,0.571-0.623,1.086-0.988,1.528c-0.374,0.451-0.759,0.848-1.144,1.174
		c-0.929,0.81-1.985,1.446-3.143,1.898l-3.36,1.334l2.948,0.316l0.572,0.067c1.843,0.218,3.518,0.778,4.979,1.667
		c0.602,0.368,1.211,0.843,1.806,1.406c0.579,0.552,1.106,1.231,1.564,2.021c0.461,0.797,0.841,1.736,1.128,2.794
		c0.286,1.06,0.431,2.297,0.431,3.675c0,2.094-0.381,4-1.134,5.664c-0.748,1.654-1.877,3.076-3.354,4.227
		c-1.493,1.165-3.392,2.072-5.642,2.696c-2.278,0.63-4.966,0.949-7.986,0.949c-0.516,0-1.015-0.006-1.498-0.019
		C23.059,111.807,20.043,110.198,18.092,107.602z M27.804,67.063c-0.487,0-0.969,0.059-1.431,0.176
		c-0.501,0.13-0.944,0.353-1.319,0.663c-0.382,0.314-0.686,0.729-0.903,1.229c-0.213,0.487-0.321,1.087-0.321,1.781v35.552
		c0,0.527,0.053,1.034,0.157,1.504c0.117,0.537,0.358,1.012,0.715,1.408c0.352,0.391,0.826,0.7,1.411,0.924
		c0.57,0.22,1.277,0.325,2.162,0.325c1.278,0,2.468-0.37,3.535-1.101c1.028-0.704,1.92-1.619,2.651-2.718
		c0.723-1.083,1.29-2.315,1.684-3.659c0.391-1.341,0.59-2.696,0.59-4.025c0-1.97-0.271-3.738-0.806-5.253
		c-0.539-1.529-1.306-2.844-2.282-3.909c-0.978-1.064-2.148-1.903-3.479-2.492c-1.066-0.471-2.214-0.782-3.423-0.932l0.148-0.378
		c0.833-0.01,1.643-0.152,2.412-0.421c0.938-0.328,1.774-0.907,2.486-1.723c0.694-0.798,1.251-1.875,1.653-3.203
		c0.393-1.3,0.593-2.941,0.593-4.879c0-1.334-0.167-2.56-0.499-3.642c-0.333-1.088-0.782-2.022-1.336-2.782
		c-0.568-0.774-1.24-1.381-1.997-1.8C29.431,67.28,28.622,67.063,27.804,67.063"/>
	<path clip-path="url(#SVGID_2_)" fill="#0E4C5B" d="M17.097,58.323c-1.32-1.757-2.033-3.895-2.033-6.092V23.178
		c0-0.838-0.373-2.244-2.865-2.244c-1.139,0-2.309,0.173-3.479,0.515c-1.163,0.339-2.232,0.81-3.177,1.402
		c-0.961,0.601-1.76,1.332-2.378,2.173c-0.649,0.885-0.979,1.861-0.979,2.897c0,0.728,0.1,1.304,0.306,1.763
		c0.202,0.453,0.45,0.81,0.737,1.058c0.294,0.254,0.609,0.42,0.938,0.491c0.27,0.06,0.467,0.088,0.618,0.088
		c0.594,0,1.1-0.109,1.504-0.324c0.342-0.182,0.654-0.376,0.933-0.579l0.73-0.538c0.121-0.089,0.256-0.131,0.421-0.131
		c0.156,0,0.333,0.04,0.525,0.118c0.187,0.077,0.365,0.203,0.53,0.375c0.172,0.18,0.325,0.43,0.456,0.745
		c0.125,0.308,0.19,0.704,0.19,1.175c0,0.686-0.131,1.277-0.388,1.758c-0.266,0.497-0.612,0.917-1.028,1.248
		c-0.421,0.334-0.91,0.588-1.455,0.752c-0.56,0.17-1.124,0.256-1.676,0.256c-0.861,0-1.642-0.148-2.324-0.44
		c-0.68-0.291-1.264-0.696-1.735-1.203c-0.476-0.51-0.841-1.118-1.088-1.806C0.128,32.025,0,31.267,0,30.472
		c0-1.539,0.289-2.911,0.857-4.076c0.572-1.169,1.39-2.192,2.431-3.04c1.062-0.865,2.358-1.596,3.853-2.173
		c1.519-0.587,3.228-1.06,5.08-1.406c1.867-0.351,3.893-0.602,6.023-0.748c2.141-0.147,3.171-0.221,5.479-0.221
		c5.585,0,9.727,0.868,12.309,2.581c2.54,1.684,3.774,4.073,3.774,7.303c0,0.793-0.087,1.528-0.261,2.187
		c-0.178,0.669-0.407,1.283-0.681,1.821c-0.275,0.54-0.589,1.026-0.934,1.444c-0.353,0.427-0.717,0.801-1.081,1.11
		c-0.878,0.765-1.876,1.367-2.97,1.794l-3.175,1.261l2.786,0.298l0.54,0.064c1.742,0.206,3.325,0.736,4.705,1.575
		c0.569,0.348,1.144,0.796,1.707,1.329c0.547,0.521,1.045,1.164,1.478,1.91c0.436,0.752,0.794,1.641,1.066,2.64
		c0.27,1.001,0.407,2.17,0.407,3.472c0,1.979-0.36,3.78-1.071,5.352c-0.708,1.564-1.775,2.908-3.17,3.995
		c-1.411,1.101-3.205,1.958-5.332,2.547c-2.153,0.596-4.692,0.897-7.546,0.897c-0.488,0-0.959-0.005-1.415-0.016
		C21.79,62.296,18.94,60.777,17.097,58.323z M26.274,20.015c-0.46,0-0.916,0.056-1.352,0.167c-0.474,0.122-0.893,0.333-1.247,0.626
		c-0.36,0.298-0.648,0.688-0.853,1.161c-0.201,0.46-0.303,1.027-0.303,1.683v33.596c0,0.498,0.05,0.977,0.148,1.421
		c0.11,0.507,0.338,0.955,0.676,1.331c0.332,0.368,0.78,0.661,1.333,0.873c0.539,0.207,1.207,0.307,2.043,0.307
		c1.208,0,2.332-0.35,3.34-1.041c0.972-0.665,1.815-1.529,2.506-2.568c0.683-1.024,1.219-2.187,1.591-3.457
		c0.37-1.268,0.558-2.548,0.558-3.805c0-1.861-0.257-3.532-0.762-4.963c-0.509-1.445-1.235-2.688-2.157-3.694
		c-0.924-1.007-2.029-1.799-3.287-2.355c-1.008-0.445-2.092-0.74-3.234-0.881l0.139-0.357c0.787-0.009,1.553-0.143,2.279-0.398
		c0.886-0.309,1.677-0.857,2.349-1.628c0.657-0.753,1.182-1.771,1.563-3.026c0.371-1.229,0.56-2.78,0.56-4.611
		c0-1.26-0.158-2.418-0.471-3.441c-0.315-1.027-0.74-1.911-1.263-2.628c-0.537-0.733-1.172-1.306-1.887-1.701
		C27.811,20.221,27.047,20.015,26.274,20.015"/>
	<path clip-path="url(#SVGID_2_)" fill="#9B1B44" d="M68.068,109.843c4.336,0,8.137-3.093,8.137-6.762c0-0.285-0.01-2.542-0.01-2.59
		h-0.001h0.001l-0.001-0.008h0.001c0.005-1.888,1.562-3.415,3.484-3.415c1.919,0,3.5,1.527,3.484,3.413h0.001
		c0,0.003,0,0.007-0.001,0.01v0.001c0,6.382-7.124,11.411-15.096,11.411c-8.361,0-15.14-5.507-15.14-14.139V85.146
		c0-10,6.779-14.481,15.14-14.481c8.362,0,14.728,3.565,14.728,10.391c0,4.965-3.24,7.486-5.392,8.688
		c-2.425,1.352-6.138,2.331-8.85,3.569c-5.635,2.574-8.638,5.183-8.638,8.805C59.915,107.338,63.562,109.843,68.068,109.843
		 M68.067,72.725c-4.83,0-8.152,4.102-8.152,9.746v12.62c2.272-1.298,5.381-2.638,7.926-4.146c4.137-2.451,8.379-5.411,8.379-9.89
		C76.22,75.828,73.396,72.725,68.067,72.725"/>
	<path clip-path="url(#SVGID_2_)" fill="#9B1B44" d="M105.395,72.725c-4.336,0-8.137,3.093-8.137,6.762
		c0,0.285,0.01,2.542,0.01,2.591h0.001h-0.001l0.001,0.008h-0.001c-0.005,1.887-1.562,3.415-3.483,3.415
		c-1.92,0-3.5-1.528-3.484-3.414h-0.001c0-0.002,0-0.006,0.001-0.009v-0.001c0-6.383,7.124-11.411,15.097-11.411
		c8.36,0,15.14,5.506,15.14,14.138v12.618c0,10-6.779,14.481-15.14,14.481c-8.362,0-14.729-3.565-14.729-10.391
		c0-4.965,3.24-7.486,5.392-8.687c2.426-1.353,6.14-2.331,8.851-3.57c5.635-2.574,8.638-5.183,8.638-8.804
		C113.548,75.229,109.901,72.725,105.395,72.725 M105.396,109.843c4.829,0,8.151-4.101,8.151-9.746v-12.62
		c-2.271,1.298-5.381,2.638-7.926,4.146c-4.137,2.451-8.379,5.411-8.379,9.889C97.243,106.739,100.067,109.843,105.396,109.843"/>
	<path clip-path="url(#SVGID_2_)" fill="#0E4C5B" d="M113.201,25.25c-4.097,0-7.688,2.922-7.688,6.389
		c0,0.269,0.009,2.403,0.009,2.448h0.002h-0.002l0.002,0.007h-0.002c-0.004,1.784-1.477,3.228-3.292,3.228s-3.308-1.444-3.292-3.226
		h-0.001c0-0.003,0-0.006,0.001-0.009v-0.001c0-6.031,6.73-10.783,14.265-10.783c7.9,0,14.308,5.203,14.308,13.36v11.924
		c0,9.449-6.407,13.685-14.308,13.685c-7.901,0-13.917-3.371-13.917-9.82c0-4.691,3.062-7.073,5.096-8.209
		c2.291-1.278,5.8-2.203,8.362-3.373c5.325-2.432,8.162-4.897,8.162-8.32C120.905,27.617,117.459,25.25,113.201,25.25
		 M113.202,60.326c4.565,0,7.703-3.875,7.703-9.209V39.19c-2.146,1.226-5.084,2.493-7.489,3.918
		c-3.909,2.316-7.918,5.113-7.918,9.344C105.498,57.394,108.166,60.326,113.202,60.326"/>
	<path clip-path="url(#SVGID_2_)" fill="#9B1B44" d="M159.91,83.919l0.004,27.169c0,0.449-0.42,0.813-0.934,0.813h-5.125
		c-0.515,0-0.932-0.363-0.932-0.813l-0.002-30.039c0-3.973-3.626-7.31-8.146-7.316l-1.243,0.002
		c-4.601-0.079-8.316,3.291-8.316,7.315l0.004,30.039c0,0.449-0.417,0.813-0.934,0.813h-5.124c-0.515,0-0.932-0.363-0.932-0.813
		l-0.003-27.17c0-6.75,6.778-12.223,15.14-12.223h1.4C153.13,71.696,159.909,77.169,159.91,83.919"/>
	<path clip-path="url(#SVGID_2_)" fill="#0E4C5B" d="M85.442,11.923c0-2.454-1.989-4.444-4.444-4.444
		c-2.454,0-4.443,1.99-4.443,4.444c0,2.454,1.989,4.444,4.443,4.444C83.453,16.367,85.442,14.377,85.442,11.923"/>
	<path clip-path="url(#SVGID_2_)" fill="#0E4C5B" d="M83,2.006c0-1.105-0.896-2.001-2.001-2.001c-1.105,0-2.001,0.896-2.001,2.001
		s0.896,2.001,2.001,2.001C82.104,4.007,83,3.111,83,2.006"/>
	<path clip-path="url(#SVGID_2_)" fill="#9B1B44" d="M75.258,6.752c-0.423-1.021-1.593-1.506-2.615-1.083
		c-1.021,0.423-1.505,1.594-1.083,2.615c0.423,1.021,1.594,1.505,2.615,1.083C75.196,8.945,75.681,7.773,75.258,6.752"/>
	<path clip-path="url(#SVGID_2_)" fill="#9B1B44" d="M72.09,0.828c-0.284-0.685-1.068-1.01-1.753-0.726
		c-0.685,0.283-1.01,1.068-0.726,1.753c0.283,0.685,1.068,1.01,1.753,0.726C72.048,2.298,72.375,1.513,72.09,0.828"/>
	<path clip-path="url(#SVGID_2_)" fill="#9B1B44" d="M63.441,16.403c-1.021-0.423-2.192,0.062-2.615,1.083
		c-0.422,1.021,0.062,2.192,1.083,2.615c1.022,0.422,2.192-0.062,2.615-1.083S64.462,16.826,63.441,16.403"/>
	<path clip-path="url(#SVGID_2_)" fill="#9B1B44" d="M57.013,14.454c-0.685-0.284-1.47,0.042-1.753,0.726
		c-0.284,0.685,0.041,1.47,0.726,1.753c0.685,0.284,1.47-0.041,1.753-0.726C58.022,15.522,57.697,14.738,57.013,14.454"/>
	<path clip-path="url(#SVGID_2_)" fill="#9B1B44" d="M100.088,20.101c1.021-0.423,1.506-1.593,1.083-2.615
		c-0.423-1.021-1.594-1.505-2.615-1.083c-1.021,0.423-1.505,1.594-1.083,2.615C97.896,20.039,99.067,20.523,100.088,20.101"/>
	<path clip-path="url(#SVGID_2_)" fill="#9B1B44" d="M106.013,16.933c0.685-0.284,1.01-1.068,0.726-1.753
		c-0.283-0.685-1.068-1.01-1.753-0.726c-0.685,0.283-1.01,1.068-0.726,1.753C104.542,16.891,105.327,17.217,106.013,16.933"/>
	<path clip-path="url(#SVGID_2_)" fill="#9B1B44" d="M90.438,8.284c0.423-1.021-0.062-2.192-1.083-2.615
		c-1.021-0.422-2.192,0.062-2.615,1.083c-0.422,1.021,0.063,2.192,1.083,2.615C88.845,9.79,90.015,9.305,90.438,8.284"/>
	<path clip-path="url(#SVGID_2_)" fill="#9B1B44" d="M92.387,1.855c0.284-0.685-0.042-1.47-0.726-1.753
		c-0.686-0.284-1.471,0.041-1.753,0.726c-0.284,0.685,0.041,1.47,0.726,1.753C91.318,2.865,92.103,2.54,92.387,1.855"/>
	<path clip-path="url(#SVGID_2_)" fill="#0E4C5B" d="M74.299,12.857c-1.735-1.735-4.549-1.735-6.284,0
		c-1.736,1.735-1.736,4.549,0,6.284c1.735,1.736,4.549,1.736,6.284,0C76.034,17.406,76.034,14.592,74.299,12.857"/>
	<path clip-path="url(#SVGID_2_)" fill="#0E4C5B" d="M65.56,7.573c-0.781-0.781-2.048-0.781-2.83,0c-0.781,0.781-0.781,2.049,0,2.83
		c0.782,0.781,2.049,0.781,2.83,0C66.342,9.622,66.342,8.354,65.56,7.573"/>
	<path clip-path="url(#SVGID_2_)" fill="#0E4C5B" d="M93.983,19.142c1.734-1.735,1.734-4.549,0-6.284
		c-1.735-1.736-4.549-1.736-6.284,0c-1.736,1.735-1.736,4.549,0,6.284C89.435,20.877,92.248,20.877,93.983,19.142"/>
	<path clip-path="url(#SVGID_2_)" fill="#0E4C5B" d="M99.268,10.403c0.781-0.781,0.781-2.049,0-2.83
		c-0.78-0.781-2.049-0.781-2.829,0c-0.781,0.781-0.781,2.049,0,2.83C97.219,11.184,98.487,11.184,99.268,10.403"/>
	<g clip-path="url(#SVGID_2_)">
		<text transform="matrix(1 0 0 1 14.1963 127.8926)"><tspan x="0" y="0" fill="#766F7B" font-family="'Poppins-Medium'" font-size="8.8605" letter-spacing="1">BY KK</tspan><tspan x="30.825" y="0" fill="#766F7B" font-family="'Poppins-Medium'" font-size="8.8605" letter-spacing="1"> </tspan><tspan x="34.644" y="0" fill="#766F7B" font-family="'Poppins-Medium'" font-size="8.8605" letter-spacing="1">HOT</tspan><tspan x="56.777" y="0" fill="#766F7B" font-family="'Poppins-Medium'" font-size="8.8605" letter-spacing="1">E</tspan><tspan x="63.077" y="0" fill="#766F7B" font-family="'Poppins-Medium'" font-size="8.8605" letter-spacing="1">LS &amp;</tspan><tspan x="86.663" y="0" fill="#766F7B" font-family="'Poppins-Medium'" font-size="8.8605" letter-spacing="1"> </tspan><tspan x="90.482" y="0" fill="#766F7B" font-family="'Poppins-Medium'" font-size="8.8605" letter-spacing="1">RESORT</tspan><tspan x="130.948" y="0" fill="#766F7B" font-family="'Poppins-Medium'" font-size="8.8605">S</tspan></text>
	</g>
</g>
</svg>
