<?xml version="1.0" encoding="utf-8"?>
<!-- Generator: Adobe Illustrator 16.0.0, SVG Export Plug-In . SVG Version: 6.00 Build 0)  -->
<!DOCTYPE svg PUBLIC "-//W3C//DTD SVG 1.1//EN" "http://www.w3.org/Graphics/SVG/1.1/DTD/svg11.dtd">
<svg version="1.1" id="Layer_1" xmlns="http://www.w3.org/2000/svg" xmlns:xlink="http://www.w3.org/1999/xlink" x="0px" y="0px"
	 width="439.911px" height="75.522px" viewBox="0 0 439.911 75.522" enable-background="new 0 0 439.911 75.522"
	 xml:space="preserve">
<g>
	<defs>
		<rect id="SVGID_1_" y="0" width="439.911" height="75.523"/>
	</defs>
	<clipPath id="SVGID_2_">
		<use xlink:href="#SVGID_1_"  overflow="visible"/>
	</clipPath>
	<path clip-path="url(#SVGID_2_)" fill="#1C3D6F" d="M317.637,42.56v0.843h-8.988v-4.454h-0.12c-0.644,1.686-1.535,2.979-2.68,3.882
		c-1.144,0.904-2.618,1.355-4.425,1.355c-1.966,0-3.753-0.382-5.356-1.145c-1.606-0.762-2.98-1.775-4.124-3.04
		c-1.145-1.264-2.037-2.718-2.68-4.364c-0.642-1.645-0.963-3.371-0.963-5.177c0-1.405,0.25-2.91,0.753-4.515
		c0.501-1.605,1.284-3.09,2.348-4.455c1.063-1.363,2.418-2.498,4.063-3.401s3.631-1.355,5.959-1.355
		c1.807,0,3.271,0.422,4.396,1.265c1.123,0.843,1.985,2.107,2.588,3.792h0.121V0.842h-1.886V0h9.229v42.56H317.637z M308.317,26.247
		c-0.142-1.525-0.433-2.929-0.873-4.214c-0.442-1.284-1.104-2.348-1.986-3.19c-0.884-0.843-2.068-1.265-3.552-1.265
		c-1.004,0-1.857,0.221-2.559,0.662c-0.702,0.442-1.274,1.165-1.716,2.168s-0.752,2.338-0.933,4.003
		c-0.181,1.666-0.271,3.702-0.271,6.11c0,1.966,0.051,3.742,0.15,5.328c0.1,1.585,0.321,2.94,0.663,4.063
		c0.34,1.124,0.842,1.986,1.504,2.589c0.663,0.602,1.555,0.902,2.679,0.902c1.687,0,3-0.43,3.943-1.294
		c0.943-0.863,1.656-1.946,2.137-3.251c0.482-1.303,0.773-2.708,0.873-4.213c0.101-1.506,0.151-2.88,0.151-4.124
		C308.528,29.195,308.457,27.772,308.317,26.247"/>
	<path clip-path="url(#SVGID_2_)" fill="#1C3D6F" d="M353.199,43.437V19.297h-1.766v-0.843h8.989v6.02h0.12
		c0.16-0.361,0.441-0.912,0.843-1.655c0.401-0.743,0.983-1.476,1.746-2.198c0.762-0.722,1.745-1.354,2.949-1.896
		s2.709-0.813,4.515-0.813c2.649,0,4.705,0.763,6.171,2.288c1.464,1.526,2.197,3.612,2.197,6.26v16.976h1.825v0.843h-10.694v-0.843
		h1.525V24.414c0-1.685-0.342-2.919-1.024-3.701c-0.683-0.783-1.604-1.174-2.769-1.174c-0.963,0-1.888,0.231-2.77,0.692
		c-0.883,0.461-1.655,1.154-2.317,2.077s-1.194,2.067-1.596,3.431c-0.4,1.365-0.602,2.97-0.602,4.816v12.882h1.585v0.843h-10.694
		v-0.843H353.199z"/>
	<path clip-path="url(#SVGID_2_)" fill="#1C3D6F" d="M236.61,31.339c-2.463,0-4.459,1.997-4.459,4.459
		c0,1.97,1.278,3.638,3.051,4.228l-0.004,0.004c0.017,0.004,0.029,0.008,0.045,0.012c0.258,0.083,0.526,0.141,0.801,0.176
		c0.488,0.08,0.662,0.34,0.631,0.667c-0.079,0.519-0.659,1.192-1.394,1.611c-1.104,0.602-2.459,0.902-4.064,0.902
		c-1.806,0-3.211-0.381-4.213-1.143c-1.004-0.763-1.767-1.736-2.288-2.92c-0.521-1.183-0.843-2.508-0.963-3.973
		s-0.181-2.92-0.181-4.365v-2.708h17.759c0-2.047-0.361-3.803-1.084-5.268c-0.722-1.464-1.646-2.658-2.769-3.581
		c-1.124-0.923-2.389-1.605-3.792-2.047c-1.406-0.441-2.811-0.663-4.215-0.663c-1.967,0-3.803,0.392-5.508,1.175
		c-1.706,0.781-3.19,1.805-4.455,3.069c-1.264,1.264-2.258,2.72-2.979,4.365c-0.722,1.646-1.083,3.331-1.083,5.056
		c0,2.168,0.381,4.104,1.143,5.809c0.762,1.707,1.816,3.151,3.161,4.335c1.344,1.184,2.919,2.087,4.727,2.709
		c1.806,0.622,3.751,0.933,5.839,0.933c1.765,0,3.27-0.252,4.514-0.753s2.288-1.123,3.131-1.866c0.541-0.477,1-0.98,1.393-1.508
		c0.015-0.019,0.028-0.039,0.044-0.058c0.061-0.084,0.126-0.166,0.183-0.251c0.234-0.329,0.447-0.681,0.624-1.06
		c0.008-0.014,0.008-0.029,0.012-0.045c0.155-0.305,0.289-0.603,0.406-0.895c0.022-0.056,0.051-0.105,0.073-0.162
		c0.083-0.192,0.151-0.39,0.208-0.594c0.013-0.044,0.031-0.081,0.044-0.125c-0.001-0.007-0.005-0.011-0.007-0.018
		c0.006-0.025,0.008-0.051,0.014-0.077c0.005-0.017,0.012-0.036,0.017-0.054l-0.007-0.002c0.063-0.297,0.105-0.601,0.105-0.916
		C241.068,33.336,239.072,31.339,236.61,31.339 M223.783,24.165c0.1-1.144,0.331-2.207,0.693-3.191
		c0.36-0.982,0.91-1.795,1.654-2.438c0.742-0.642,1.796-0.963,3.16-0.963c0.963,0,1.716,0.221,2.258,0.662
		c0.542,0.442,0.933,0.984,1.173,1.626c0.241,0.642,0.382,1.285,0.423,1.926c0.038,0.642,0.06,1.184,0.06,1.626v4.033h-9.632
		C223.612,26.402,223.683,25.308,223.783,24.165"/>
	<path clip-path="url(#SVGID_2_)" fill="#1C3D6F" d="M342.105,31.339c-2.463,0-4.459,1.997-4.459,4.459
		c0,1.97,1.279,3.638,3.051,4.228l-0.004,0.004c0.018,0.004,0.029,0.008,0.045,0.012c0.258,0.083,0.526,0.141,0.801,0.176
		c0.488,0.08,0.662,0.34,0.632,0.667c-0.079,0.519-0.659,1.192-1.395,1.611c-1.104,0.602-2.459,0.902-4.063,0.902
		c-1.807,0-3.211-0.381-4.214-1.143c-1.004-0.763-1.767-1.736-2.287-2.92c-0.522-1.183-0.844-2.508-0.964-3.973
		c-0.119-1.465-0.181-2.92-0.181-4.365v-2.708h17.759c0-2.047-0.36-3.803-1.084-5.268c-0.722-1.464-1.646-2.658-2.769-3.581
		c-1.124-0.923-2.388-1.605-3.792-2.047c-1.406-0.441-2.811-0.663-4.214-0.663c-1.968,0-3.804,0.392-5.508,1.175
		c-1.706,0.781-3.191,1.805-4.455,3.069c-1.265,1.264-2.259,2.72-2.98,4.365c-0.722,1.646-1.083,3.331-1.083,5.056
		c0,2.168,0.381,4.104,1.144,5.809c0.762,1.707,1.815,3.151,3.16,4.335s2.919,2.087,4.727,2.709
		c1.806,0.622,3.751,0.933,5.839,0.933c1.765,0,3.27-0.252,4.514-0.753s2.288-1.123,3.131-1.866c0.541-0.477,1-0.98,1.393-1.508
		c0.015-0.019,0.029-0.039,0.044-0.058c0.061-0.084,0.126-0.166,0.183-0.251c0.234-0.329,0.447-0.681,0.624-1.06
		c0.008-0.014,0.008-0.029,0.013-0.045c0.154-0.305,0.288-0.603,0.405-0.895c0.023-0.056,0.052-0.105,0.073-0.162
		c0.084-0.192,0.152-0.39,0.208-0.594c0.013-0.044,0.032-0.081,0.044-0.125c-0.001-0.007-0.005-0.011-0.007-0.018
		c0.006-0.025,0.008-0.051,0.014-0.077c0.005-0.017,0.013-0.036,0.018-0.054l-0.007-0.002c0.063-0.297,0.104-0.601,0.104-0.916
		C346.563,33.336,344.567,31.339,342.105,31.339 M329.278,24.165c0.101-1.144,0.331-2.207,0.693-3.191
		c0.36-0.982,0.911-1.795,1.655-2.438c0.741-0.642,1.796-0.963,3.159-0.963c0.963,0,1.717,0.221,2.259,0.662
		c0.541,0.442,0.932,0.984,1.173,1.626s0.381,1.285,0.422,1.926c0.039,0.642,0.06,1.184,0.06,1.626v4.033h-9.632
		C329.107,26.402,329.179,25.308,329.278,24.165"/>
	<polygon clip-path="url(#SVGID_2_)" fill="#1C3D6F" points="282.289,43.166 282.289,18.184 273.119,18.184 273.119,19.026 
		274.945,19.026 274.945,43.166 273.119,43.166 273.119,44.009 284.114,44.009 284.114,43.166 	"/>
	<path clip-path="url(#SVGID_2_)" fill="#1C3D6F" d="M277.278,9.585l-0.004,0.003c0.018,0.005,0.03,0.008,0.046,0.012
		c0.258,0.083,0.525,0.141,0.802,0.176c1.03,0.169,0.693,1.132-0.13,1.864c-0.177,0.157-0.015,0.437,0.209,0.361
		c1.277-0.434,3.535-2.088,4.57-4.859c0.083-0.19,0.151-0.389,0.208-0.593c0.012-0.043,0.032-0.081,0.044-0.125
		c-0.002-0.007-0.006-0.011-0.007-0.017c0.081-0.337,0.129-0.688,0.129-1.05c0-2.462-1.996-4.458-4.459-4.458
		c-2.462,0-4.458,1.996-4.458,4.458C274.229,7.327,275.507,8.995,277.278,9.585"/>
	<path clip-path="url(#SVGID_2_)" fill="#1C3D6F" d="M408.728,38.771c-0.341,0.783-0.854,1.565-1.535,2.349
		c-0.683,0.781-1.586,1.465-2.709,2.046c-1.124,0.583-2.508,0.873-4.153,0.873c-1.726,0-3.091-0.401-4.094-1.204
		c-1.004-0.802-1.766-1.845-2.287-3.13c-0.523-1.284-0.843-2.709-0.963-4.274c-0.089-1.151-0.133-2.302-0.155-3.453v-1.423
		c0-1.445,0.061-2.9,0.181-4.365c0.119-1.465,0.44-2.79,0.963-3.973c0.521-1.184,1.283-2.157,2.288-2.92
		c1.003-0.762,2.407-1.143,4.214-1.143c1.604,0,2.959,0.301,4.063,0.903h0.001c0.734,0.42,1.314,1.093,1.393,1.612
		c0.031,0.326-0.143,0.586-0.63,0.666c-0.275,0.035-0.543,0.093-0.802,0.176c-0.016,0.004-0.027,0.008-0.045,0.012
		c0,0,0.003,0.003,0.004,0.003c-1.771,0.59-3.051,2.258-3.051,4.228c0,2.462,1.996,4.458,4.459,4.458
		c2.462,0,4.458-1.996,4.458-4.458c0-0.315-0.042-0.62-0.104-0.916l0.007-0.002c-0.005-0.018-0.013-0.036-0.018-0.054
		c-0.006-0.026-0.008-0.052-0.014-0.077c0.002-0.007,0.005-0.011,0.007-0.018c-0.012-0.044-0.031-0.081-0.044-0.125
		c-0.056-0.204-0.125-0.403-0.208-0.594c-0.021-0.057-0.051-0.106-0.073-0.162c-0.116-0.292-0.252-0.59-0.404-0.895
		c-0.005-0.015-0.006-0.031-0.014-0.045c-0.177-0.379-0.391-0.731-0.624-1.059c-0.057-0.084-0.121-0.165-0.181-0.248
		c-0.016-0.02-0.031-0.042-0.046-0.062c-0.394-0.526-0.851-1.031-1.392-1.507c-0.844-0.743-1.888-1.365-3.131-1.866
		c-1.244-0.501-2.75-0.753-4.515-0.753c-2.087,0-4.034,0.311-5.84,0.933c-1.805,0.622-3.381,1.525-4.726,2.71
		c-1.345,1.182-2.397,2.627-3.159,4.334c-0.764,1.705-1.145,3.641-1.145,5.809c0,0.214-0.005,0.427-0.002,0.641H384.7
		c0,0.019,0.003,0.036,0.003,0.055c0.002,0.068,0,0.136,0.005,0.205h0.006c0.041,1.637,0.351,3.094,0.837,4.336
		c0.581,1.485,1.345,2.739,2.288,3.762c0.942,1.024,1.977,1.837,3.101,2.439c1.123,0.601,2.236,1.073,3.341,1.414
		c1.103,0.341,2.127,0.561,3.07,0.663c0.941,0.099,1.675,0.149,2.196,0.149c1.927,0,3.522-0.262,4.786-0.782
		c1.265-0.521,2.297-1.153,3.101-1.897c0.802-0.741,1.415-1.544,1.836-2.407c0.384-0.786,0.664-1.507,0.866-2.178h-0.927
		C409.099,37.882,408.941,38.28,408.728,38.771"/>
	<path clip-path="url(#SVGID_2_)" fill="#1C3D6F" d="M439.789,22.948c-0.001-0.006-0.006-0.011-0.007-0.017
		c0.081-0.337,0.129-0.688,0.129-1.05c0-2.462-1.996-4.458-4.459-4.458c-2.462,0-4.458,1.996-4.458,4.458
		c0,1.97,1.278,3.638,3.05,4.228l-0.003,0.003c0.016,0.005,0.029,0.008,0.045,0.012c0.257,0.083,0.525,0.141,0.801,0.176
		c1.031,0.169,0.694,1.132-0.129,1.864c-0.176,0.157-0.015,0.437,0.208,0.361c1.278-0.434,3.536-2.088,4.57-4.858
		c0.084-0.191,0.151-0.39,0.209-0.594C439.758,23.03,439.777,22.992,439.789,22.948"/>
	<path clip-path="url(#SVGID_2_)" fill="#1C3D6F" d="M426.947,18.214v-0.843h-15.29v0.843h3.189l11.317,27.089l-2.588,6.441
		c-0.281,0.722-0.666,1.616-1.047,2.499c-0.364,0.842-0.825,1.532-1.251,2.063c-0.602,0.684-1.453,1.372-2.702,1.772
		c-0.973,0.311-2.011-0.129-1.42-0.941c0.172-0.218,0.322-0.446,0.447-0.687c0.008-0.015,0.014-0.026,0.023-0.041
		c-0.001,0-0.005,0.001-0.005,0.001c0.906-1.782,0.542-4.046-1.108-5.438c-1.708-1.439-4.332-1.349-5.945,0.195
		c-1.803,1.725-1.838,4.585-0.092,6.354c0.254,0.259,0.534,0.474,0.828,0.656c0.005,0.006,0.005,0.013,0.008,0.019
		c0.04,0.022,0.08,0.036,0.119,0.058c0.184,0.105,0.371,0.199,0.565,0.276c2.211,1.026,4.67,0.962,6.091,0.606
		c1.726-0.432,3.581-1.302,5.137-4.445c0.798-1.61,1.524-3.389,2.367-5.507c0.903-2.266,3.804-9.377,4.989-12.349
		c0.002-0.004-7.848-18.622-7.848-18.622H426.947z"/>
	<path clip-path="url(#SVGID_2_)" fill="#1C3D6F" d="M265.175,30.822c-1.124-1.244-2.769-2.247-4.936-3.01l-5.117-1.746
		c-1.004-0.361-1.807-0.732-2.408-1.113s-1.044-0.762-1.324-1.145c-0.28-0.38-0.462-0.752-0.542-1.113
		c-0.081-0.361-0.121-0.682-0.121-0.964c0-1.363,0.553-2.397,1.656-3.099c1.104-0.702,2.496-1.054,4.327-1.054
		c0.433,0,0.839,0.027,1.228,0.067c1.018,0.134,1.467,0.573,0.725,1.158c-0.227,0.165-0.435,0.347-0.621,0.545
		c-0.011,0.012-0.021,0.021-0.033,0.033l0.004,0.001c-1.264,1.374-1.575,3.453-0.621,5.176c1.192,2.155,3.905,2.934,6.06,1.742
		c2.154-1.192,2.935-3.905,1.741-6.06c-0.175-0.316-0.386-0.6-0.62-0.855c-0.001-0.006,0-0.012-0.002-0.019
		c-0.04-0.041-0.085-0.077-0.126-0.116c-0.071-0.072-0.146-0.14-0.222-0.206c-0.057-0.05-0.112-0.1-0.171-0.148
		c-0.006-0.004-0.011-0.008-0.016-0.012c-1.631-1.323-3.934-1.888-5.727-2.078c-0.035-0.003-0.07-0.006-0.105-0.01
		c-0.81-0.079-1.51-0.085-1.981-0.048c-0.005,0,0,0.006-0.003,0.007c-1.317,0.053-2.667,0.255-3.775,0.672
		c-1.225,0.462-2.268,1.084-3.131,1.867c-0.862,0.782-1.534,1.696-2.017,2.739c-0.481,1.044-0.722,2.147-0.722,3.31
		c0,1.084,0.181,2.017,0.542,2.8c0.36,0.782,0.813,1.455,1.354,2.016c0.542,0.563,1.134,1.014,1.776,1.355
		c0.637,0.339,1.234,0.608,1.794,0.808h0.053l-0.041,0.005l4.876,1.806c1.084,0.401,1.937,0.793,2.559,1.173
		c0.621,0.382,1.093,0.774,1.414,1.174c0.321,0.402,0.531,0.793,0.633,1.174c0.1,0.382,0.15,0.753,0.15,1.114
		c0,1.165-0.211,2.057-0.632,2.679c-0.422,0.622-0.924,1.083-1.505,1.384c-0.582,0.302-1.174,0.473-1.776,0.513
		c-0.602,0.041-1.084,0.06-1.444,0.06c-1.405,0-2.588-0.25-3.553-0.752c-0.02-0.011-0.037-0.023-0.059-0.035
		c-0.297-0.358-0.302-0.753,0.234-1.05c0.247-0.125,0.479-0.27,0.693-0.435c0.015-0.01,0.025-0.018,0.039-0.026l-0.004-0.002
		c1.469-1.153,2.111-3.154,1.447-5.009c-0.83-2.318-3.382-3.525-5.7-2.695c-2.319,0.83-3.525,3.382-2.696,5.7
		c0.123,0.341,0.286,0.655,0.477,0.945c0,0.006-0.002,0.012-0.001,0.019c0.044,0.063,0.091,0.119,0.136,0.18
		c0.018,0.024,0.036,0.05,0.055,0.073c1.542,2.039,3.72,2.997,5.25,3.279c0.515,0.127,1.036,0.247,1.574,0.35
		c0.843,0.159,1.626,0.241,2.348,0.241c1.324,0,2.608-0.202,3.854-0.603c1.243-0.4,2.337-0.973,3.28-1.716
		c0.942-0.742,1.706-1.645,2.288-2.709c0.581-1.063,0.873-2.257,0.873-3.582C266.861,33.65,266.298,32.065,265.175,30.822"/>
	<polygon clip-path="url(#SVGID_2_)" fill="#1C3D6F" points="119.649,42.546 98.279,14.731 92.68,20.634 92.199,20.634 
		92.199,1.371 97.737,1.371 97.737,0.528 80.139,0.528 80.139,1.371 83.47,1.371 83.47,42.546 80.139,42.546 80.139,43.389 
		95.529,43.389 95.529,42.546 92.199,42.546 92.199,21.477 92.68,21.477 108.693,42.546 105.483,42.546 105.483,43.389 
		123.381,43.389 123.381,42.546 	"/>
	<path clip-path="url(#SVGID_2_)" fill="#1C3D6F" d="M108.124,10.48l-0.004,0.004c0.02,0.005,0.035,0.009,0.054,0.014
		c0.308,0.099,0.629,0.168,0.959,0.211c1.234,0.201,0.83,1.355-0.155,2.23c-0.211,0.187-0.018,0.523,0.25,0.432
		c1.606-0.546,4.522-2.687,5.657-6.311c0.012-0.035,0.023-0.07,0.033-0.105c0.026-0.087,0.057-0.169,0.081-0.258
		c-0.002-0.008-0.007-0.013-0.009-0.021c0.098-0.403,0.155-0.822,0.155-1.256c0-2.946-2.389-5.335-5.336-5.335
		c-2.946,0-5.335,2.389-5.335,5.335C104.474,7.778,106.004,9.774,108.124,10.48"/>
	<polygon clip-path="url(#SVGID_2_)" fill="#1C3D6F" points="164.405,42.546 143.035,14.731 137.436,20.634 136.955,20.634 
		136.955,1.371 142.493,1.371 142.493,0.528 124.895,0.528 124.895,1.371 128.226,1.371 128.226,42.546 124.895,42.546 
		124.895,43.389 140.285,43.389 140.285,42.546 136.955,42.546 136.955,21.477 137.436,21.477 153.449,42.546 150.239,42.546 
		150.239,43.389 168.137,43.389 168.137,42.546 	"/>
	<path clip-path="url(#SVGID_2_)" fill="#1C3D6F" d="M152.88,10.48l-0.004,0.004c0.02,0.005,0.035,0.009,0.054,0.014
		c0.308,0.099,0.629,0.168,0.959,0.211c1.234,0.201,0.83,1.355-0.155,2.23c-0.211,0.187-0.018,0.523,0.25,0.432
		c1.606-0.546,4.522-2.687,5.657-6.311c0.012-0.035,0.023-0.07,0.033-0.105c0.026-0.087,0.057-0.169,0.081-0.258
		c-0.002-0.008-0.007-0.013-0.009-0.021c0.098-0.403,0.155-0.822,0.155-1.256c0-2.946-2.389-5.335-5.336-5.335
		c-2.946,0-5.335,2.389-5.335,5.335C149.229,7.778,150.76,9.774,152.88,10.48"/>
	<path clip-path="url(#SVGID_2_)" fill="#1C3D6F" d="M208.276,38.577c0-1.547-0.247-8.978-0.247-11.12
		c0-1.462,0.494-7.292-10.636-7.292V19.86c1.381-0.122,2.782-0.375,4.204-0.762c1.421-0.385,2.711-0.944,3.868-1.674
		c1.158-0.732,2.102-1.676,2.833-2.833c0.731-1.158,1.097-2.549,1.097-4.174c0-2.03-0.478-3.716-1.432-5.056
		c-0.955-1.341-2.163-2.407-3.625-3.199c-1.462-0.792-3.076-1.349-4.843-1.675C197.728,0.163,196.053,0,194.469,0
		c-1.706,0-3.392,0.03-5.057,0.091c-1.666,0.061-3.35,0.091-5.056,0.091h-6.965v0.853h3.371v41.671h-3.371v0.853h15.575v-0.853
		h-3.371V20.713h4.021c1.909,0,2.978,0.366,4.035,1.097c1.055,0.731,0.617,8.036,0.617,14.461c0,9.143,12.047,8.525,14.982,7.753
		C211.921,44.024,208.276,42.366,208.276,38.577 M192.093,19.86h-2.498V1.035c0.447-0.039,0.893-0.08,1.34-0.122
		c0.447-0.04,0.894-0.061,1.341-0.061c1.543,0,2.812,0.205,3.807,0.61c0.995,0.406,1.777,1.026,2.346,1.858
		c0.568,0.833,0.975,1.888,1.218,3.168c0.244,1.28,0.366,2.813,0.366,4.6c0,1.096-0.071,2.173-0.213,3.228
		c-0.143,1.057-0.478,2.001-1.006,2.833c-0.528,0.833-1.32,1.493-2.375,1.98C195.362,19.616,193.921,19.86,192.093,19.86"/>
	<path clip-path="url(#SVGID_2_)" fill="#EAA14A" d="M28.022,0.223L0,35.888c0,0,7.107-1.877,13.14,11.531
		c6.034,13.408,13.81,22.793,31.643,18.905c0,0-11.263-2.682-18.637-20.648c0,0-4.157-10.173-11.129-12.394L40.492,0.223H28.022z"/>
	<path clip-path="url(#SVGID_2_)" fill="#EAA14A" d="M52.114,0.116L24.091,35.781c0,0,7.107-1.877,13.14,11.531
		c6.034,13.408,13.81,22.793,31.643,18.905c0,0-11.263-2.683-18.637-20.648c0,0-4.157-10.174-11.129-12.394L64.583,0.116H52.114z"/>
	<rect y="0" clip-path="url(#SVGID_2_)" fill="#EAA14A" width="11.907" height="11.907"/>
	<g clip-path="url(#SVGID_2_)">
		<text transform="matrix(1 0 0 1 80.1401 66.2637)"><tspan x="0" y="0" fill="#EAA14A" font-family="'Poppins-Medium'" font-size="15.9086" letter-spacing="3">BY KK HOTELS &amp; R</tspan><tspan x="174.563" y="0" fill="#EAA14A" font-family="'Poppins-Medium'" font-size="15.9086" letter-spacing="3">E</tspan><tspan x="185.874" y="0" fill="#EAA14A" font-family="'Poppins-Medium'" font-size="15.9086" letter-spacing="3">SORT</tspan><tspan x="235.142" y="0" fill="#EAA14A" font-family="'Poppins-Medium'" font-size="15.9086">S</tspan></text>
	</g>
</g>
</svg>
