<?xml version="1.0" encoding="utf-8"?>
<!-- Generator: Adobe Illustrator 16.0.0, SVG Export Plug-In . SVG Version: 6.00 Build 0)  -->
<!DOCTYPE svg PUBLIC "-//W3C//DTD SVG 1.1//EN" "http://www.w3.org/Graphics/SVG/1.1/DTD/svg11.dtd">
<svg version="1.1" id="Layer_1" xmlns="http://www.w3.org/2000/svg" xmlns:xlink="http://www.w3.org/1999/xlink" x="0px" y="0px"
	 width="316.704px" height="73.41px" viewBox="0 0 316.704 73.41" enable-background="new 0 0 316.704 73.41" xml:space="preserve">
<g>
	<defs>
		<rect id="SVGID_1_" y="0" width="316.704" height="73.41"/>
	</defs>
	<clipPath id="SVGID_2_">
		<use xlink:href="#SVGID_1_"  overflow="visible"/>
	</clipPath>
	<path clip-path="url(#SVGID_2_)" fill="#1C3D6F" d="M127.358,48.076v0.401h-4.275v-2.118h-0.057
		c-0.305,0.801-0.73,1.417-1.274,1.846c-0.544,0.43-1.245,0.645-2.104,0.645c-0.935,0-1.785-0.182-2.548-0.544
		c-0.763-0.362-1.417-0.845-1.961-1.446c-0.544-0.601-0.969-1.292-1.274-2.075c-0.305-0.781-0.458-1.603-0.458-2.462
		c0-0.668,0.119-1.384,0.358-2.146c0.238-0.764,0.611-1.471,1.117-2.119c0.505-0.648,1.149-1.188,1.932-1.617
		c0.782-0.43,1.727-0.644,2.834-0.644c0.859,0,1.555,0.2,2.09,0.601c0.534,0.401,0.945,1.002,1.231,1.803h0.057v-9.962h-0.897
		v-0.401h4.39v20.24H127.358z M122.926,40.318c-0.067-0.725-0.205-1.393-0.415-2.004s-0.525-1.116-0.945-1.517
		c-0.42-0.401-0.983-0.601-1.689-0.601c-0.477,0-0.883,0.104-1.216,0.314c-0.335,0.211-0.607,0.554-0.816,1.031
		c-0.211,0.478-0.358,1.112-0.444,1.904s-0.129,1.76-0.129,2.906c0,0.935,0.024,1.779,0.072,2.533
		c0.047,0.754,0.152,1.397,0.315,1.932c0.161,0.535,0.4,0.945,0.715,1.232c0.315,0.285,0.74,0.429,1.274,0.429
		c0.802,0,1.427-0.205,1.875-0.616c0.448-0.41,0.787-0.925,1.017-1.546c0.229-0.62,0.367-1.288,0.415-2.003
		c0.047-0.716,0.071-1.37,0.071-1.961C123.026,41.721,122.993,41.044,122.926,40.318"/>
	<path clip-path="url(#SVGID_2_)" fill="#1C3D6F" d="M235.693,35.458v2.033h0.057c0.115-0.191,0.268-0.416,0.459-0.673
		c0.19-0.258,0.443-0.506,0.759-0.744c0.314-0.239,0.695-0.444,1.145-0.616c0.448-0.172,0.988-0.258,1.618-0.258
		c0.667,0,1.226,0.072,1.674,0.215c0.449,0.143,0.821,0.325,1.117,0.544c0.295,0.219,0.534,0.463,0.715,0.73
		c0.183,0.267,0.349,0.535,0.501,0.802c0.287-0.516,0.606-0.921,0.96-1.217c0.353-0.296,0.71-0.525,1.073-0.687
		c0.362-0.162,0.706-0.267,1.031-0.315c0.323-0.047,0.591-0.072,0.801-0.072c1.088,0,1.928,0.163,2.519,0.487
		c0.593,0.325,1.021,0.711,1.289,1.159c0.268,0.449,0.425,0.921,0.473,1.418c0.047,0.495,0.071,0.916,0.071,1.259v7.814h0.84v0.401
		h-4.972v-0.401h0.64v-8.874c0-0.802-0.148-1.417-0.444-1.847c-0.296-0.429-0.787-0.644-1.474-0.644
		c-0.21,0-0.469,0.057-0.773,0.172c-0.305,0.114-0.601,0.286-0.887,0.515c-0.287,0.229-0.53,0.53-0.73,0.902
		c-0.201,0.372-0.301,0.815-0.301,1.331v8.444h0.639v0.401h-4.799v-0.401h0.667v-9.103c0-0.84-0.181-1.427-0.544-1.761
		c-0.362-0.333-0.763-0.501-1.202-0.501c-0.763,0-1.431,0.334-2.004,1.002c-0.153,0.191-0.286,0.387-0.4,0.587
		s-0.205,0.43-0.272,0.687c-0.067,0.258-0.114,0.554-0.143,0.888s-0.044,0.739-0.044,1.217v6.984h1.689v0.401h-6.021v-0.401h0.84
		V35.86h-0.84v-0.401H235.693z"/>
	<path clip-path="url(#SVGID_2_)" fill="#1C3D6F" d="M106.86,36.009c0.849,0.354,1.589,0.826,2.219,1.417
		c0.63,0.592,1.121,1.284,1.474,2.076s0.53,1.627,0.53,2.505c0,0.896-0.177,1.741-0.53,2.533c-0.353,0.793-0.844,1.484-1.474,2.075
		c-0.63,0.593-1.37,1.06-2.219,1.403c-0.849,0.343-1.77,0.515-2.762,0.515c-0.993,0-1.914-0.172-2.763-0.515
		c-0.849-0.344-1.589-0.811-2.219-1.403c-0.629-0.591-1.121-1.282-1.474-2.075c-0.353-0.792-0.529-1.637-0.529-2.533
		c0-0.878,0.176-1.713,0.529-2.505s0.845-1.484,1.474-2.076c0.63-0.591,1.37-1.063,2.219-1.417c0.849-0.353,1.77-0.529,2.763-0.529
		C105.09,35.48,106.011,35.656,106.86,36.009 M105.844,47.632c0.42-0.354,0.73-0.816,0.93-1.388
		c0.201-0.573,0.325-1.231,0.373-1.977c0.047-0.744,0.071-1.498,0.071-2.261s-0.024-1.513-0.071-2.247
		c-0.048-0.735-0.172-1.389-0.373-1.961c-0.2-0.573-0.51-1.036-0.93-1.389s-1.002-0.53-1.746-0.53c-0.745,0-1.327,0.177-1.747,0.53
		c-0.42,0.353-0.73,0.816-0.93,1.389c-0.2,0.572-0.325,1.226-0.372,1.961c-0.048,0.734-0.072,1.484-0.072,2.247
		s0.024,1.517,0.072,2.261c0.047,0.745,0.172,1.403,0.372,1.977c0.2,0.571,0.51,1.034,0.93,1.388c0.42,0.353,1.002,0.53,1.747,0.53
		C104.842,48.163,105.424,47.985,105.844,47.632"/>
	<path clip-path="url(#SVGID_2_)" fill="#1C3D6F" d="M211.76,36.009c0.849,0.354,1.589,0.826,2.219,1.417
		c0.63,0.592,1.121,1.284,1.475,2.076c0.353,0.792,0.529,1.627,0.529,2.505c0,0.896-0.177,1.741-0.529,2.533
		c-0.354,0.793-0.845,1.484-1.475,2.075c-0.63,0.593-1.37,1.06-2.219,1.403c-0.849,0.343-1.77,0.515-2.762,0.515
		c-0.993,0-1.914-0.172-2.764-0.515c-0.849-0.344-1.589-0.811-2.219-1.403c-0.629-0.591-1.121-1.282-1.474-2.075
		c-0.354-0.792-0.529-1.637-0.529-2.533c0-0.878,0.176-1.713,0.529-2.505c0.353-0.792,0.845-1.484,1.474-2.076
		c0.63-0.591,1.37-1.063,2.219-1.417c0.85-0.353,1.771-0.529,2.764-0.529C209.99,35.48,210.911,35.656,211.76,36.009
		 M210.744,47.632c0.42-0.354,0.729-0.816,0.93-1.388c0.201-0.573,0.325-1.231,0.373-1.977c0.047-0.744,0.071-1.498,0.071-2.261
		s-0.024-1.513-0.071-2.247c-0.048-0.735-0.172-1.389-0.373-1.961c-0.2-0.573-0.51-1.036-0.93-1.389s-1.002-0.53-1.746-0.53
		c-0.745,0-1.327,0.177-1.747,0.53s-0.73,0.816-0.931,1.389c-0.199,0.572-0.324,1.226-0.371,1.961
		c-0.049,0.734-0.072,1.484-0.072,2.247s0.023,1.517,0.072,2.261c0.047,0.745,0.172,1.403,0.371,1.977
		c0.2,0.571,0.511,1.034,0.931,1.388c0.42,0.353,1.002,0.53,1.747,0.53C209.742,48.163,210.324,47.985,210.744,47.632"/>
	<path clip-path="url(#SVGID_2_)" fill="#1C3D6F" d="M284.733,36.009c0.85,0.354,1.589,0.826,2.22,1.417
		c0.63,0.592,1.12,1.284,1.474,2.076c0.353,0.792,0.53,1.627,0.53,2.505c0,0.896-0.178,1.741-0.53,2.533
		c-0.354,0.793-0.844,1.484-1.474,2.075c-0.631,0.593-1.37,1.06-2.22,1.403c-0.849,0.343-1.77,0.515-2.762,0.515
		c-0.993,0-1.914-0.172-2.763-0.515c-0.85-0.344-1.589-0.811-2.22-1.403c-0.629-0.591-1.12-1.282-1.474-2.075
		c-0.353-0.792-0.529-1.637-0.529-2.533c0-0.878,0.177-1.713,0.529-2.505c0.354-0.792,0.845-1.484,1.474-2.076
		c0.631-0.591,1.37-1.063,2.22-1.417c0.849-0.353,1.77-0.529,2.763-0.529C282.964,35.48,283.885,35.656,284.733,36.009
		 M283.718,47.632c0.42-0.354,0.729-0.816,0.93-1.388c0.201-0.573,0.325-1.231,0.373-1.977c0.047-0.744,0.071-1.498,0.071-2.261
		s-0.024-1.513-0.071-2.247c-0.048-0.735-0.172-1.389-0.373-1.961c-0.2-0.573-0.51-1.036-0.93-1.389s-1.002-0.53-1.746-0.53
		c-0.745,0-1.327,0.177-1.747,0.53s-0.729,0.816-0.93,1.389c-0.2,0.572-0.325,1.226-0.372,1.961
		c-0.048,0.734-0.072,1.484-0.072,2.247s0.024,1.517,0.072,2.261c0.047,0.745,0.172,1.403,0.372,1.977
		c0.2,0.571,0.51,1.034,0.93,1.388c0.42,0.353,1.002,0.53,1.747,0.53C282.716,48.163,283.298,47.985,283.718,47.632"/>
	<path clip-path="url(#SVGID_2_)" fill="#1C3D6F" d="M153.318,43.188c-1.171,0-2.12,0.948-2.12,2.119c0,0.938,0.608,1.73,1.45,2.012
		l-0.001,0.001c0.007,0.002,0.013,0.004,0.021,0.006c0.122,0.039,0.25,0.066,0.381,0.084c0.232,0.038,0.315,0.161,0.3,0.317
		c-0.037,0.245-0.313,0.566-0.663,0.766c-0.525,0.286-1.169,0.43-1.933,0.43c-0.858,0-1.527-0.182-2.003-0.544
		c-0.478-0.363-0.84-0.826-1.088-1.389c-0.248-0.563-0.401-1.192-0.458-1.89c-0.058-0.696-0.086-1.389-0.086-2.075v-1.288h8.445
		c0-0.974-0.172-1.809-0.515-2.505c-0.344-0.696-0.783-1.265-1.317-1.703c-0.535-0.439-1.136-0.763-1.804-0.974
		c-0.668-0.209-1.336-0.315-2.004-0.315c-0.935,0-1.808,0.187-2.619,0.559c-0.811,0.372-1.517,0.858-2.119,1.46
		c-0.601,0.602-1.073,1.293-1.417,2.075c-0.343,0.783-0.515,1.585-0.515,2.405c0,1.031,0.181,1.952,0.544,2.762
		c0.362,0.813,0.863,1.499,1.503,2.063c0.639,0.563,1.388,0.991,2.247,1.287c0.859,0.297,1.785,0.444,2.777,0.444
		c0.84,0,1.556-0.12,2.147-0.357c0.592-0.239,1.088-0.534,1.489-0.889c0.257-0.226,0.476-0.466,0.662-0.717
		c0.007-0.009,0.014-0.018,0.021-0.027c0.029-0.04,0.06-0.079,0.087-0.12c0.111-0.155,0.212-0.322,0.297-0.503
		c0.003-0.007,0.003-0.015,0.006-0.021c0.073-0.146,0.137-0.287,0.193-0.425c0.01-0.027,0.024-0.051,0.034-0.078
		c0.04-0.091,0.072-0.186,0.099-0.282c0.006-0.021,0.015-0.038,0.021-0.06c-0.001-0.003-0.002-0.006-0.003-0.009
		c0.003-0.012,0.004-0.023,0.006-0.035c0.003-0.01,0.006-0.019,0.008-0.026l-0.003-0.001c0.03-0.141,0.05-0.286,0.05-0.437
		C155.438,44.136,154.489,43.188,153.318,43.188 M147.218,39.776c0.047-0.544,0.157-1.051,0.329-1.518
		c0.172-0.468,0.434-0.854,0.787-1.16c0.353-0.305,0.855-0.458,1.504-0.458c0.458,0,0.815,0.105,1.073,0.315
		c0.258,0.21,0.444,0.468,0.558,0.773c0.115,0.306,0.181,0.61,0.201,0.916c0.018,0.306,0.028,0.563,0.028,0.772v1.918h-4.58
		C147.137,40.839,147.17,40.32,147.218,39.776"/>
	<polygon clip-path="url(#SVGID_2_)" fill="#1C3D6F" points="259.243,47.422 259.243,35.542 254.882,35.542 254.882,35.943 
		255.75,35.943 255.75,47.422 254.882,47.422 254.882,47.824 260.111,47.824 260.111,47.422 	"/>
	<path clip-path="url(#SVGID_2_)" fill="#1C3D6F" d="M256.86,31.453l-0.002,0.002c0.008,0.002,0.014,0.003,0.021,0.005
		c0.122,0.04,0.25,0.067,0.381,0.084c0.49,0.08,0.33,0.538-0.062,0.886c-0.083,0.075-0.007,0.208,0.1,0.172
		c0.607-0.207,1.682-0.993,2.173-2.311c0.04-0.09,0.072-0.185,0.1-0.282c0.006-0.02,0.015-0.038,0.021-0.059
		c-0.001-0.003-0.003-0.005-0.003-0.008c0.038-0.161,0.062-0.327,0.062-0.499c0-1.172-0.949-2.121-2.12-2.121
		s-2.12,0.949-2.12,2.121C255.41,30.379,256.018,31.172,256.86,31.453"/>
	<path clip-path="url(#SVGID_2_)" fill="#1C3D6F" d="M140.315,36.336c0.798,0.858,2.14,0.906,2.997,0.108
		c0.857-0.797,0.905-2.139,0.108-2.996c-0.118-0.126-0.38-0.359-0.709-0.501c-1.694-0.751-5.274-0.2-5.893,2.636
		c-0.329-0.049-0.6-0.058-0.973-0.058c-0.859,0-1.637,0.114-2.333,0.343c-0.697,0.229-1.284,0.54-1.761,0.931
		c-0.477,0.391-0.844,0.849-1.102,1.374c-0.258,0.525-0.386,1.083-0.386,1.674c0,0.42,0.061,0.788,0.186,1.103
		c0.123,0.315,0.276,0.592,0.458,0.831c0.181,0.238,0.376,0.447,0.587,0.63c0.209,0.181,0.4,0.339,0.572,0.472
		c-0.592,0.325-1.064,0.668-1.417,1.031c-0.353,0.361-0.615,0.711-0.787,1.044c-0.172,0.335-0.282,0.626-0.329,0.874
		c-0.048,0.248-0.072,0.42-0.072,0.515c0,0.592,0.143,1.088,0.43,1.488c0.286,0.401,0.639,0.716,1.059,0.945
		c0.419,0.229,0.875,0.38,1.359,0.486c0.919,0.203,1.876,0.2,1.876,0.2h2.977c0.286,0,0.621,0,0.972,0.032
		c1.885,0.168,2.129,2.279,1.576,3.773c-0.184,0.496-0.413,0.905-0.785,1.248c-0.37,0.343-1.239,0.758-2.019,0.869
		c-0.403,0.021-0.72-0.21-0.471-0.552c0.081-0.104,0.153-0.213,0.212-0.327c0.004-0.006,0.007-0.012,0.011-0.019h-0.002
		c0.403-0.791,0.278-1.783-0.379-2.45c-0.823-0.833-2.165-0.842-2.999-0.021c-0.833,0.823-0.843,2.165-0.02,2.999
		c0.121,0.122,0.254,0.226,0.394,0.313c0.002,0.003,0.002,0.005,0.004,0.008c0.018,0.011,0.038,0.017,0.056,0.028
		c0.088,0.05,0.177,0.094,0.269,0.131c0.522,0.242,1.048,0.348,1.53,0.375c0.02,0.004,0.04,0.01,0.061,0.01
		c0.646,0.029,1.69,0.022,2.52-0.322c0.831-0.344,1.541-0.792,2.133-1.345c0.591-0.554,2.592-2.706,1.346-5.71
		c-0.253-0.607-0.707-1.045-1.203-1.388c-0.496-0.345-1.073-0.587-1.732-0.73c-0.658-0.143-1.35-0.215-2.075-0.215h-3.149
		c-0.649,0-1.165-0.114-1.546-0.343c-0.382-0.229-0.573-0.582-0.573-1.061c0-0.209,0.048-0.442,0.143-0.7
		c0.095-0.259,0.42-0.568,0.974-0.931c0.381,0.153,0.868,0.306,1.46,0.458c0.591,0.153,1.269,0.229,2.032,0.229
		c0.954,0,1.756-0.118,2.405-0.357s1.178-0.548,1.589-0.931c0.41-0.381,0.706-0.807,0.887-1.273
		c0.181-0.468,0.272-0.939,0.272-1.418c0-0.782-0.133-1.378-0.401-1.789c-0.267-0.41-0.933-1.372-2.59-2.133
		c-0.266-0.122-0.562-0.208-0.876-0.272c0,0,0.81-2.47,3.036-2.102c-0.047,0.058-0.214,0.318-0.219,0.325c0,0,0.002,0,0.003,0
		C139.582,34.656,139.677,35.651,140.315,36.336 M137.849,38.23c0.038,0.469,0.057,0.979,0.057,1.531
		c0,0.783-0.053,1.417-0.157,1.904c-0.105,0.487-0.253,0.858-0.444,1.117c-0.191,0.257-0.42,0.429-0.687,0.515
		s-0.573,0.129-0.916,0.129c-0.325,0-0.63-0.038-0.916-0.115c-0.287-0.075-0.53-0.252-0.73-0.528
		c-0.201-0.277-0.358-0.683-0.472-1.218c-0.115-0.533-0.172-1.25-0.172-2.146c0-0.439,0.028-0.868,0.086-1.288
		c0.057-0.42,0.166-0.792,0.329-1.117c0.162-0.324,0.396-0.587,0.701-0.787c0.305-0.2,0.697-0.301,1.174-0.301
		c0.515,0,0.916,0.096,1.202,0.287c0.287,0.191,0.506,0.458,0.659,0.801C137.715,37.357,137.811,37.762,137.849,38.23"/>
	<path clip-path="url(#SVGID_2_)" fill="#1C3D6F" d="M229.112,37.813c-0.082-0.354-0.291-0.714-0.349-0.795
		c-0.667-1.055-1.819-1.624-2.412-1.733c-1.724-0.317-3.139-0.077-3.962,0.239h-4.124v0.401h0.812v11.48h-0.812v0.399h5.516v-0.399
		h-1.211l-0.057-11.558c1.073-0.442,2.935-0.521,3.846-0.22c0.308,0.101,0.323,0.487-0.017,0.618
		c-0.125,0.043-0.244,0.096-0.354,0.16c-0.008,0.003-0.014,0.006-0.021,0.01l0.002,0.001c-0.768,0.447-1.2,1.348-1.009,2.266
		c0.24,1.146,1.364,1.881,2.51,1.641C228.617,40.083,229.377,38.954,229.112,37.813"/>
	<path clip-path="url(#SVGID_2_)" fill="#1C3D6F" d="M301.326,37.813c-0.082-0.354-0.291-0.714-0.349-0.795
		c-0.667-1.055-1.82-1.624-2.412-1.733c-1.724-0.317-3.139-0.077-3.962,0.239h-4.124v0.401h0.812v11.48h-0.812v0.399h5.516v-0.399
		h-1.212l-0.056-11.558c1.073-0.442,2.935-0.521,3.845-0.22c0.309,0.101,0.324,0.487-0.016,0.618
		c-0.125,0.043-0.244,0.096-0.355,0.16c-0.008,0.003-0.013,0.006-0.021,0.01l0.003,0.001c-0.768,0.447-1.2,1.348-1.009,2.266
		c0.24,1.146,1.363,1.881,2.51,1.641C300.831,40.083,301.591,38.954,301.326,37.813"/>
	<path clip-path="url(#SVGID_2_)" fill="#1C3D6F" d="M316.179,37.788c-0.001-0.003-0.003-0.005-0.004-0.008
		c0.039-0.16,0.062-0.327,0.062-0.499c0-1.171-0.949-2.121-2.12-2.121s-2.121,0.95-2.121,2.121c0,0.937,0.609,1.73,1.451,2.01
		l-0.002,0.002c0.008,0.003,0.015,0.005,0.022,0.006c0.122,0.04,0.25,0.066,0.381,0.084c0.49,0.08,0.33,0.538-0.063,0.886
		c-0.083,0.075-0.007,0.208,0.101,0.172c0.606-0.206,1.681-0.993,2.173-2.31c0.04-0.092,0.072-0.186,0.099-0.282
		C316.164,37.827,316.173,37.809,316.179,37.788"/>
	<path clip-path="url(#SVGID_2_)" fill="#1C3D6F" d="M310.071,35.537v-0.401H302.8v0.401h1.518l5.382,12.883l-1.23,3.063
		c-0.134,0.344-0.317,0.769-0.498,1.188c-0.173,0.401-0.393,0.729-0.595,0.982c-0.286,0.324-0.691,0.651-1.285,0.842
		c-0.463,0.148-0.956-0.061-0.675-0.447c0.08-0.104,0.152-0.213,0.212-0.327c0.004-0.007,0.007-0.012,0.012-0.019h-0.003
		c0.431-0.847,0.258-1.924-0.527-2.586c-0.812-0.685-2.06-0.642-2.827,0.093c-0.856,0.82-0.874,2.18-0.044,3.021
		c0.121,0.123,0.254,0.226,0.395,0.312c0.002,0.003,0.002,0.006,0.004,0.009c0.019,0.012,0.038,0.018,0.056,0.027
		c0.088,0.051,0.177,0.095,0.27,0.132c1.052,0.488,2.221,0.457,2.896,0.288c0.82-0.205,1.703-0.619,2.443-2.114
		c0.379-0.766,0.725-1.61,1.126-2.617c0.429-1.078,1.808-4.46,2.372-5.873c0.001-0.002-3.732-8.856-3.732-8.856H310.071z"/>
	<path clip-path="url(#SVGID_2_)" fill="#1C3D6F" d="M269.195,38.244c0.24,1.146,1.363,1.881,2.509,1.641
		c1.147-0.239,1.906-1.368,1.643-2.509c-0.082-0.353-0.291-0.714-0.348-0.795c-0.667-1.055-1.665-1.585-2.412-1.733
		c-0.988-0.195-1.875-0.194-2.609-0.097l-0.002-8.096h-0.329c0,0-0.455,2.322-3.159,2.322v6.467
		c-0.843,0.084-1.713,0.039-2.252-0.139c-0.014-0.004-0.023-0.012-0.037-0.018v0.348c0.016,0.003,0.03,0.009,0.045,0.012
		c0.829,0.163,1.589,0.19,2.244,0.137v8.521c0,0.344,0.02,0.716,0.058,1.117s0.186,0.773,0.443,1.116
		c0.257,0.344,0.658,0.63,1.202,0.858c0.544,0.229,1.313,0.344,2.305,0.344c0.362,0,0.744-0.033,1.146-0.101
		c0.401-0.066,0.777-0.205,1.131-0.415s0.668-0.51,0.944-0.901c0.276-0.391,0.473-0.911,0.587-1.561l-0.429-0.086
		c-0.077,0.287-0.178,0.583-0.302,0.888c-0.124,0.306-0.281,0.577-0.472,0.816c-0.191,0.239-0.415,0.434-0.673,0.586
		c-0.257,0.154-0.568,0.229-0.93,0.229c-0.325,0-0.588-0.058-0.788-0.172s-0.354-0.271-0.457-0.472
		c-0.106-0.201-0.178-0.425-0.216-0.673s-0.057-0.515-0.057-0.802l-0.003-9.984c0.948-0.138,2-0.108,2.616,0.095
		c0.307,0.102,0.324,0.488-0.017,0.619c-0.125,0.043-0.243,0.096-0.355,0.16c-0.007,0.003-0.012,0.006-0.021,0.01l0.002,0.001
		C269.437,36.425,269.004,37.326,269.195,38.244"/>
	<path clip-path="url(#SVGID_2_)" fill="#1C3D6F" d="M179.792,28.616v-0.399h1.574c0.967,0,1.935-0.014,2.902-0.043
		c0.968-0.028,1.935-0.042,2.902-0.042c0.854,0,1.754,0.057,2.703,0.17c0.948,0.114,1.887,0.318,2.817,0.612
		c0.929,0.295,1.811,0.688,2.646,1.181c0.835,0.494,1.575,1.12,2.22,1.878c0.645,0.759,1.157,1.66,1.536,2.703
		c0.38,1.044,0.569,2.268,0.569,3.671c0,1.385-0.189,2.599-0.569,3.642c-0.379,1.044-0.887,1.945-1.521,2.704
		c-0.636,0.758-1.361,1.384-2.177,1.877c-0.816,0.494-1.664,0.888-2.547,1.182s-1.755,0.498-2.617,0.611
		c-0.864,0.114-1.665,0.171-2.405,0.171c-1.081,0-2.158-0.01-3.229-0.028c-1.071-0.02-2.148-0.028-3.229-0.028h-1.574v-0.399h1.574
		V28.616H179.792z M187,48.165c1.233,0,2.286-0.147,3.159-0.441c0.872-0.294,1.606-0.692,2.205-1.195
		c0.597-0.503,1.071-1.077,1.423-1.722c0.35-0.645,0.616-1.323,0.796-2.034c0.18-0.712,0.299-1.423,0.356-2.135
		c0.057-0.711,0.085-1.379,0.085-2.006c0-1.536-0.096-2.925-0.284-4.168c-0.19-1.242-0.565-2.305-1.124-3.187
		c-0.561-0.882-1.347-1.56-2.362-2.034c-1.015-0.475-2.348-0.712-3.998-0.712c-0.38,0-0.721,0.005-1.023,0.014
		c-0.305,0.01-0.552,0.034-0.74,0.072v19.461C186.042,48.135,186.545,48.165,187,48.165"/>
	<path clip-path="url(#SVGID_2_)" fill="#1C3D6F" d="M84.999,28.151v0.401h-1.584v19.581h4.724c0.63,0,1.264-0.104,1.903-0.315
		c0.64-0.21,1.241-0.558,1.804-1.045c0.563-0.486,1.069-1.116,1.517-1.889c0.449-0.773,0.797-1.713,1.045-2.82h0.372v6.47h-17.1
		v-0.4h1.584V28.552H77.68v-0.401H84.999z"/>
	<path clip-path="url(#SVGID_2_)" fill="#1C3D6F" d="M282.671,8.981v2.227h0.063c0.125-0.209,0.292-0.455,0.502-0.737
		c0.209-0.282,0.486-0.554,0.831-0.815c0.345-0.262,0.763-0.487,1.255-0.675c0.491-0.188,1.082-0.282,1.772-0.282
		c0.732,0,1.344,0.078,1.835,0.235c0.491,0.157,0.899,0.356,1.224,0.596c0.324,0.241,0.586,0.507,0.785,0.8
		c0.197,0.293,0.381,0.586,0.549,0.878c0.313-0.564,0.664-1.008,1.051-1.333c0.387-0.324,0.779-0.575,1.176-0.753
		c0.397-0.177,0.774-0.293,1.13-0.345c0.355-0.052,0.648-0.078,0.879-0.078c1.191,0,2.112,0.178,2.761,0.533
		c0.647,0.356,1.119,0.779,1.412,1.27c0.292,0.492,0.465,1.01,0.517,1.554c0.052,0.543,0.079,1.003,0.079,1.38v8.565h0.92v0.439
		h-5.448v-0.439h0.7v-9.726c0-0.878-0.162-1.553-0.486-2.024c-0.323-0.47-0.862-0.705-1.615-0.705c-0.23,0-0.513,0.062-0.848,0.188
		c-0.335,0.125-0.659,0.314-0.972,0.565c-0.314,0.251-0.581,0.58-0.8,0.988c-0.22,0.408-0.33,0.894-0.33,1.459v9.255h0.701v0.439
		h-5.261v-0.439h0.732v-9.977c0-0.92-0.199-1.563-0.596-1.929c-0.398-0.366-0.837-0.549-1.318-0.549
		c-0.837,0-1.569,0.366-2.196,1.098c-0.168,0.209-0.313,0.423-0.438,0.643c-0.126,0.22-0.226,0.471-0.298,0.753
		c-0.074,0.282-0.126,0.607-0.157,0.972c-0.032,0.367-0.047,0.811-0.047,1.334v7.655h1.851v0.439h-6.599v-0.439h0.92V9.42h-0.92
		V8.981H282.671z"/>
	<path clip-path="url(#SVGID_2_)" fill="#1C3D6F" d="M156.476,8.997c0.93,0.387,1.741,0.905,2.431,1.553
		c0.689,0.648,1.229,1.407,1.616,2.274c0.387,0.868,0.579,1.784,0.579,2.745c0,0.984-0.192,1.909-0.579,2.777
		c-0.388,0.868-0.927,1.626-1.616,2.274c-0.69,0.649-1.501,1.161-2.431,1.538c-0.931,0.376-1.94,0.564-3.028,0.564
		c-1.088,0-2.097-0.188-3.027-0.564c-0.931-0.377-1.741-0.889-2.432-1.538c-0.69-0.648-1.229-1.406-1.615-2.274
		c-0.388-0.868-0.581-1.793-0.581-2.777c0-0.961,0.193-1.877,0.581-2.745c0.386-0.867,0.925-1.626,1.615-2.274
		c0.691-0.648,1.501-1.166,2.432-1.553c0.93-0.387,1.939-0.581,3.027-0.581C154.536,8.416,155.545,8.61,156.476,8.997
		 M155.362,21.734c0.46-0.387,0.8-0.894,1.02-1.521c0.219-0.628,0.355-1.35,0.408-2.165c0.051-0.816,0.078-1.642,0.078-2.479
		c0-0.836-0.027-1.657-0.078-2.462c-0.053-0.805-0.189-1.522-0.408-2.149c-0.22-0.628-0.56-1.135-1.02-1.522
		c-0.46-0.387-1.098-0.58-1.914-0.58c-0.815,0-1.454,0.193-1.913,0.58c-0.461,0.387-0.8,0.894-1.02,1.522
		c-0.22,0.627-0.356,1.344-0.408,2.149c-0.052,0.805-0.078,1.626-0.078,2.462c0,0.837,0.026,1.663,0.078,2.479
		c0.052,0.815,0.188,1.537,0.408,2.165c0.22,0.627,0.559,1.134,1.02,1.521c0.459,0.387,1.098,0.58,1.913,0.58
		C154.264,22.314,154.902,22.121,155.362,21.734"/>
	<path clip-path="url(#SVGID_2_)" fill="#1C3D6F" d="M271.533,8.997c0.93,0.387,1.74,0.905,2.431,1.553
		c0.689,0.648,1.229,1.407,1.616,2.274c0.387,0.868,0.58,1.784,0.58,2.745c0,0.984-0.193,1.909-0.58,2.777
		c-0.388,0.868-0.927,1.626-1.616,2.274c-0.69,0.649-1.501,1.161-2.431,1.538c-0.932,0.376-1.94,0.564-3.028,0.564
		c-1.087,0-2.097-0.188-3.027-0.564c-0.931-0.377-1.741-0.889-2.432-1.538c-0.69-0.648-1.229-1.406-1.615-2.274
		c-0.388-0.868-0.581-1.793-0.581-2.777c0-0.961,0.193-1.877,0.581-2.745c0.386-0.867,0.925-1.626,1.615-2.274
		s1.501-1.166,2.432-1.553c0.931-0.387,1.94-0.581,3.027-0.581C269.593,8.416,270.602,8.61,271.533,8.997 M270.419,21.734
		c0.46-0.387,0.8-0.894,1.02-1.521c0.22-0.628,0.355-1.35,0.408-2.165c0.051-0.816,0.078-1.642,0.078-2.479
		c0-0.836-0.027-1.657-0.078-2.462c-0.053-0.805-0.188-1.522-0.408-2.149c-0.22-0.628-0.56-1.135-1.02-1.522
		c-0.46-0.387-1.099-0.58-1.914-0.58s-1.454,0.193-1.913,0.58c-0.461,0.387-0.8,0.894-1.02,1.522
		c-0.221,0.627-0.356,1.344-0.408,2.149c-0.053,0.805-0.078,1.626-0.078,2.462c0,0.837,0.025,1.663,0.078,2.479
		c0.052,0.815,0.188,1.537,0.408,2.165c0.22,0.627,0.559,1.134,1.02,1.521c0.459,0.387,1.098,0.58,1.913,0.58
		S269.959,22.121,270.419,21.734"/>
	<path clip-path="url(#SVGID_2_)" fill="#1C3D6F" d="M168.778,8.714v9.945c0,0.795,0.157,1.47,0.471,2.024
		c0.314,0.554,0.867,0.831,1.662,0.831c0.481,0,0.92-0.115,1.318-0.345c0.396-0.23,0.736-0.538,1.02-0.925
		c0.282-0.387,0.502-0.842,0.659-1.365c0.156-0.523,0.235-1.067,0.235-1.632V9.154h-0.92V8.714h4.747v13.02h0.92v0.439h-4.685
		v-2.541h-0.063c-0.168,0.46-0.419,0.863-0.753,1.208c-0.335,0.344-0.718,0.638-1.146,0.878c-0.429,0.241-0.884,0.419-1.365,0.533
		c-0.48,0.115-0.951,0.173-1.411,0.173c-1.465,0-2.583-0.319-3.357-0.957c-0.774-0.638-1.16-1.72-1.16-3.247V9.154h-0.952V8.714
		H168.778z"/>
	<path clip-path="url(#SVGID_2_)" fill="#1C3D6F" d="M314.244,16.03c-1.283,0-2.324,1.04-2.324,2.324
		c0,1.026,0.667,1.896,1.59,2.203l-0.002,0.002c0.01,0.002,0.016,0.004,0.024,0.006c0.134,0.043,0.272,0.073,0.417,0.091
		c0.254,0.042,0.345,0.178,0.329,0.348c-0.041,0.27-0.344,0.622-0.728,0.84c-0.574,0.314-1.28,0.471-2.116,0.471
		c-0.942,0-1.675-0.199-2.196-0.596c-0.524-0.398-0.921-0.905-1.193-1.522c-0.271-0.617-0.438-1.307-0.502-2.071
		c-0.062-0.763-0.094-1.521-0.094-2.274V14.44h9.255c0-1.067-0.188-1.982-0.565-2.745c-0.376-0.763-0.856-1.385-1.442-1.867
		c-0.585-0.481-1.244-0.836-1.977-1.066s-1.464-0.346-2.195-0.346c-1.025,0-1.982,0.204-2.871,0.612
		c-0.89,0.408-1.663,0.941-2.321,1.6c-0.659,0.659-1.177,1.417-1.553,2.275c-0.377,0.858-0.565,1.736-0.565,2.635
		c0,1.13,0.198,2.139,0.597,3.027c0.396,0.89,0.945,1.643,1.646,2.259c0.701,0.617,1.522,1.088,2.463,1.412
		c0.941,0.324,1.955,0.486,3.043,0.486c0.92,0,1.704-0.131,2.354-0.392c0.647-0.261,1.191-0.585,1.632-0.972
		c0.282-0.249,0.521-0.512,0.725-0.786c0.008-0.01,0.016-0.02,0.023-0.03c0.032-0.044,0.065-0.087,0.096-0.131
		c0.121-0.172,0.232-0.355,0.325-0.552c0.003-0.007,0.004-0.016,0.006-0.024c0.08-0.158,0.15-0.314,0.211-0.466
		c0.012-0.029,0.027-0.055,0.038-0.085c0.044-0.099,0.08-0.203,0.109-0.309c0.006-0.023,0.017-0.042,0.022-0.065
		c-0.001-0.004-0.003-0.006-0.004-0.009c0.003-0.014,0.004-0.027,0.007-0.041c0.003-0.009,0.006-0.019,0.009-0.028l-0.003-0.001
		c0.033-0.155,0.055-0.313,0.055-0.477C316.567,17.07,315.527,16.03,314.244,16.03 M307.56,12.291
		c0.052-0.596,0.173-1.15,0.36-1.663c0.188-0.512,0.476-0.936,0.862-1.27c0.387-0.335,0.936-0.502,1.647-0.502
		c0.502,0,0.895,0.115,1.177,0.345s0.485,0.512,0.611,0.847c0.125,0.335,0.198,0.669,0.221,1.004c0.02,0.334,0.03,0.617,0.03,0.847
		v2.102h-5.02C307.47,13.457,307.507,12.887,307.56,12.291"/>
	<polygon clip-path="url(#SVGID_2_)" fill="#1C3D6F" points="201.794,22.348 201.794,9.328 197.015,9.328 197.015,9.768 
		197.967,9.768 197.967,22.348 197.015,22.348 197.015,22.787 202.745,22.787 202.745,22.348 	"/>
	<path clip-path="url(#SVGID_2_)" fill="#1C3D6F" d="M199.183,4.847l-0.002,0.002c0.009,0.002,0.015,0.004,0.023,0.006
		c0.134,0.043,0.274,0.073,0.417,0.091c0.538,0.088,0.362,0.591-0.066,0.972c-0.093,0.082-0.009,0.228,0.108,0.188
		c0.666-0.226,1.843-1.088,2.382-2.532c0.043-0.099,0.078-0.203,0.108-0.309c0.007-0.023,0.017-0.042,0.023-0.065
		c-0.001-0.004-0.004-0.006-0.005-0.009c0.043-0.176,0.068-0.359,0.068-0.547c0-1.284-1.041-2.324-2.324-2.324
		s-2.324,1.04-2.324,2.324C197.592,3.67,198.26,4.539,199.183,4.847"/>
	<path clip-path="url(#SVGID_2_)" fill="#1C3D6F" d="M194.625,11.561c-0.09-0.387-0.317-0.782-0.381-0.871
		c-0.73-1.157-1.995-1.78-2.643-1.899c-1.891-0.348-3.44-0.084-4.344,0.262h-4.519v0.439h0.889v12.58h-0.889v0.44h6.044v-0.44
		h-1.328l-0.061-12.666c1.176-0.484,3.215-0.571,4.215-0.241c0.336,0.111,0.354,0.534-0.019,0.678
		c-0.137,0.047-0.268,0.105-0.39,0.175c-0.008,0.004-0.014,0.007-0.021,0.011l0.002,0.001c-0.841,0.49-1.315,1.478-1.105,2.482
		c0.263,1.257,1.494,2.062,2.75,1.799C194.082,14.048,194.915,12.811,194.625,11.561"/>
	<path clip-path="url(#SVGID_2_)" fill="#1C3D6F" d="M226.889,12.701c0.263,1.256,1.494,2.062,2.75,1.799
		c1.256-0.263,2.089-1.5,1.799-2.75c-0.09-0.387-0.318-0.783-0.382-0.871c-0.73-1.157-1.824-1.737-2.643-1.899
		c-1.082-0.214-2.056-0.213-2.859-0.107L225.552,0h-0.36c0,0-0.499,2.545-3.463,2.545v7.088c-0.924,0.091-1.877,0.043-2.467-0.152
		c-0.015-0.005-0.027-0.014-0.041-0.021v0.382c0.016,0.004,0.033,0.009,0.049,0.012c0.908,0.18,1.74,0.209,2.459,0.151v9.338
		c0,0.377,0.021,0.784,0.063,1.224c0.042,0.439,0.204,0.847,0.486,1.223c0.282,0.377,0.722,0.691,1.317,0.942
		s1.438,0.376,2.526,0.376c0.396,0,0.814-0.037,1.255-0.11c0.438-0.073,0.852-0.225,1.239-0.455c0.387-0.23,0.731-0.559,1.034-0.988
		c0.304-0.428,0.519-0.998,0.644-1.71l-0.47-0.094c-0.084,0.314-0.194,0.638-0.33,0.973c-0.137,0.335-0.31,0.633-0.519,0.894
		c-0.209,0.262-0.454,0.476-0.736,0.643c-0.282,0.168-0.622,0.251-1.02,0.251c-0.355,0-0.643-0.063-0.863-0.188
		c-0.22-0.126-0.387-0.298-0.502-0.518c-0.114-0.22-0.193-0.465-0.234-0.737c-0.042-0.272-0.063-0.565-0.063-0.879l-0.003-10.941
		c1.039-0.151,2.192-0.119,2.867,0.105c0.337,0.111,0.354,0.534-0.019,0.678c-0.136,0.047-0.267,0.105-0.389,0.175
		c-0.008,0.003-0.014,0.007-0.021,0.011l0.002,0.001C227.152,10.708,226.679,11.696,226.889,12.701"/>
	<path clip-path="url(#SVGID_2_)" fill="#1C3D6F" d="M216.036,15.76c-0.586-0.648-1.442-1.171-2.572-1.569l-2.666-0.91
		c-0.523-0.188-0.941-0.381-1.255-0.58c-0.314-0.198-0.545-0.397-0.69-0.596c-0.147-0.199-0.241-0.392-0.283-0.58
		c-0.042-0.189-0.063-0.356-0.063-0.503c0-0.71,0.288-1.249,0.862-1.615c0.575-0.366,1.302-0.549,2.255-0.549
		c0.227,0,0.438,0.014,0.641,0.034c0.53,0.071,0.765,0.299,0.378,0.604c-0.118,0.086-0.228,0.181-0.324,0.284
		c-0.006,0.006-0.011,0.011-0.017,0.017l0.002,0.001c-0.659,0.716-0.821,1.799-0.324,2.697c0.621,1.123,2.035,1.53,3.158,0.908
		c1.123-0.621,1.528-2.035,0.908-3.158c-0.092-0.165-0.202-0.312-0.324-0.446c-0.001-0.003,0-0.006-0.001-0.009
		c-0.021-0.022-0.044-0.04-0.065-0.061c-0.038-0.037-0.076-0.073-0.116-0.107c-0.029-0.026-0.058-0.052-0.089-0.077
		c-0.003-0.002-0.005-0.005-0.008-0.007c-0.85-0.689-2.05-0.984-2.985-1.082c-0.018-0.002-0.035-0.004-0.054-0.006
		c-0.422-0.041-0.788-0.044-1.033-0.025c-0.003,0,0,0.003-0.002,0.004c-0.687,0.028-1.389,0.133-1.967,0.35
		c-0.638,0.241-1.182,0.565-1.632,0.973c-0.45,0.408-0.8,0.884-1.051,1.427c-0.251,0.545-0.376,1.119-0.376,1.726
		c0,0.565,0.094,1.051,0.281,1.459c0.188,0.408,0.425,0.758,0.706,1.051c0.282,0.293,0.592,0.528,0.927,0.706
		c0.332,0.176,0.643,0.317,0.935,0.421h0.027l-0.021,0.002l2.541,0.941c0.565,0.21,1.009,0.414,1.333,0.612
		c0.324,0.199,0.57,0.403,0.738,0.612c0.167,0.209,0.276,0.413,0.329,0.612c0.052,0.199,0.078,0.392,0.078,0.58
		c0,0.607-0.109,1.072-0.329,1.396c-0.22,0.325-0.481,0.565-0.784,0.722c-0.304,0.157-0.612,0.246-0.926,0.266
		c-0.313,0.022-0.565,0.032-0.753,0.032c-0.732,0-1.35-0.131-1.852-0.392c-0.01-0.006-0.02-0.013-0.03-0.018
		c-0.154-0.188-0.157-0.393,0.121-0.547c0.13-0.066,0.25-0.141,0.362-0.227c0.007-0.005,0.013-0.009,0.021-0.014l-0.002-0.001
		c0.766-0.601,1.1-1.644,0.754-2.61c-0.433-1.208-1.763-1.837-2.971-1.405c-1.209,0.433-1.838,1.763-1.404,2.971
		c0.063,0.178,0.147,0.341,0.248,0.492c0,0.004-0.001,0.006-0.001,0.01c0.022,0.032,0.047,0.062,0.07,0.094
		c0.009,0.013,0.02,0.025,0.029,0.038c0.803,1.062,1.938,1.562,2.736,1.709c0.268,0.066,0.54,0.129,0.819,0.182
		c0.439,0.083,0.848,0.126,1.225,0.126c0.689,0,1.358-0.105,2.008-0.314c0.647-0.209,1.218-0.507,1.709-0.894
		c0.492-0.387,0.889-0.858,1.193-1.412c0.303-0.554,0.453-1.176,0.453-1.867C216.914,17.234,216.621,16.408,216.036,15.76"/>
	<polygon clip-path="url(#SVGID_2_)" fill="#1C3D6F" points="245.897,0.385 245.897,0.824 244.161,0.824 244.161,12.167 
		253.228,12.167 253.228,0.824 251.492,0.824 251.492,0.385 259.513,0.385 259.513,0.824 257.777,0.824 257.777,22.283 
		259.513,22.283 259.513,22.723 251.492,22.723 251.492,22.283 253.228,22.283 253.228,12.607 244.161,12.607 244.161,22.283 
		245.897,22.283 245.897,22.723 237.877,22.723 237.877,22.283 239.612,22.283 239.612,0.824 237.877,0.824 237.877,0.385 	"/>
	<path clip-path="url(#SVGID_2_)" fill="#1C3D6F" d="M133.569,0.824c-0.774,0-1.464,0.078-2.071,0.235
		c-0.606,0.157-1.15,0.429-1.631,0.816c-0.481,0.387-0.91,0.925-1.286,1.616c-0.377,0.69-0.722,1.568-1.036,2.635h-0.407V0.385
		h19.67v5.741h-0.407c-0.314-1.067-0.659-1.945-1.036-2.635c-0.376-0.691-0.805-1.229-1.286-1.616
		c-0.481-0.387-1.025-0.659-1.631-0.816c-0.607-0.157-1.297-0.235-2.071-0.235h-1.129v21.459h2.886v0.439h-9.171v-0.439h1.735V0.824
		H133.569z"/>
	<polygon clip-path="url(#SVGID_2_)" fill="#1C3D6F" points="97.771,22.259 86.611,7.732 83.687,10.816 83.435,10.816 83.435,0.756 
		86.327,0.756 86.327,0.315 77.137,0.315 77.137,0.756 78.877,0.756 78.877,22.259 77.137,22.259 77.137,22.699 85.174,22.699 
		85.174,22.259 83.435,22.259 83.435,11.256 83.687,11.256 92.049,22.259 90.373,22.259 90.373,22.699 99.72,22.699 99.72,22.259 	
		"/>
	<path clip-path="url(#SVGID_2_)" fill="#1C3D6F" d="M91.752,5.513L91.75,5.515c0.01,0.003,0.018,0.005,0.028,0.008
		c0.161,0.051,0.328,0.087,0.501,0.109c0.644,0.106,0.433,0.708-0.081,1.165c-0.11,0.098-0.009,0.273,0.13,0.226
		c0.839-0.285,2.362-1.403,2.955-3.296c0.006-0.018,0.012-0.037,0.017-0.055c0.014-0.045,0.03-0.088,0.042-0.135
		c-0.001-0.004-0.003-0.006-0.004-0.01c0.051-0.211,0.081-0.43,0.081-0.656c0-1.539-1.248-2.787-2.787-2.787
		c-1.539,0-2.786,1.248-2.786,2.787C89.846,4.102,90.645,5.144,91.752,5.513"/>
	<polygon clip-path="url(#SVGID_2_)" fill="#1C3D6F" points="121.145,22.259 109.984,7.732 107.061,10.816 106.809,10.816 
		106.809,0.756 109.701,0.756 109.701,0.315 100.511,0.315 100.511,0.756 102.25,0.756 102.25,22.259 100.511,22.259 
		100.511,22.699 108.547,22.699 108.547,22.259 106.809,22.259 106.809,11.256 107.061,11.256 115.422,22.259 113.747,22.259 
		113.747,22.699 123.094,22.699 123.094,22.259 	"/>
	<path clip-path="url(#SVGID_2_)" fill="#1C3D6F" d="M115.125,5.513l-0.002,0.002c0.01,0.003,0.018,0.005,0.028,0.008
		c0.161,0.051,0.328,0.087,0.501,0.109c0.644,0.106,0.433,0.708-0.081,1.165c-0.11,0.098-0.009,0.273,0.13,0.226
		c0.839-0.285,2.362-1.403,2.955-3.296c0.006-0.018,0.012-0.037,0.017-0.055c0.014-0.045,0.03-0.088,0.042-0.135
		c-0.001-0.004-0.003-0.006-0.004-0.01c0.051-0.211,0.081-0.43,0.081-0.656c0-1.539-1.248-2.787-2.787-2.787
		c-1.539,0-2.786,1.248-2.786,2.787C113.22,4.102,114.019,5.144,115.125,5.513"/>
	<path clip-path="url(#SVGID_2_)" fill="#EAA14A" d="M28.022,0.299L0,35.964c0,0,7.107-1.877,13.14,11.531
		C19.173,60.903,26.95,70.288,44.783,66.4c0,0-11.263-2.682-18.637-20.648c0,0-4.157-10.174-11.129-12.394L40.492,0.299H28.022z"/>
	<path clip-path="url(#SVGID_2_)" fill="#EAA14A" d="M52.114,0.191L24.091,35.856c0,0,7.107-1.877,13.14,11.531
		c6.034,13.408,13.81,22.793,31.643,18.905c0,0-11.263-2.683-18.637-20.648c0,0-4.157-10.174-11.129-12.394L64.583,0.191H52.114z"/>
	<rect y="0.075" clip-path="url(#SVGID_2_)" fill="#EAA14A" width="11.907" height="11.907"/>
	<g clip-path="url(#SVGID_2_)">
		<text transform="matrix(1 0 0 1 77.6797 66.9546)"><tspan x="0" y="0" fill="#EAA14A" font-family="'Poppins-Medium'" font-size="11.0904" letter-spacing="2">BY KK HOT</tspan><tspan x="71.078" y="0" fill="#EAA14A" font-family="'Poppins-Medium'" font-size="11.0904" letter-spacing="2">E</tspan><tspan x="78.962" y="0" fill="#EAA14A" font-family="'Poppins-Medium'" font-size="11.0904" letter-spacing="2">LS</tspan><tspan x="94.544" y="0" fill="#EAA14A" font-family="'Poppins-Medium'" font-size="11.0904" letter-spacing="2"> &amp;</tspan><tspan x="108.463" y="0" fill="#EAA14A" font-family="'Poppins-Medium'" font-size="11.0904" letter-spacing="2"> R</tspan><tspan x="121.66" y="0" fill="#EAA14A" font-family="'Poppins-Medium'" font-size="11.0904" letter-spacing="2">E</tspan><tspan x="129.545" y="0" fill="#EAA14A" font-family="'Poppins-Medium'" font-size="11.0904" letter-spacing="2">S</tspan><tspan x="137.452" y="0" fill="#EAA14A" font-family="'Poppins-Medium'" font-size="11.0904" letter-spacing="2">O</tspan><tspan x="147.522" y="0" fill="#EAA14A" font-family="'Poppins-Medium'" font-size="11.0904" letter-spacing="2">RT</tspan><tspan x="163.881" y="0" fill="#EAA14A" font-family="'Poppins-Medium'" font-size="11.0904">S</tspan></text>
	</g>
	<path clip-path="url(#SVGID_2_)" fill="#1C3D6F" d="M169.263,43.539c-1.242,0-1.863,0.342-1.863,1.024
		c0,0.348,0.199,0.521,0.596,0.521c0.398,0,0.678-0.168,0.839-0.503c0.608,0.148,0.913,0.49,0.913,1.024
		c0,0.298-0.108,0.559-0.325,0.782c-0.219,0.224-0.525,0.335-0.924,0.335c-0.396,0-0.751-0.205-1.062-0.614
		c-0.31-0.411-0.465-0.951-0.465-1.621c0-0.671,0.267-1.267,0.801-1.789c0.534-0.521,1.26-0.781,2.179-0.781
		c0.571,0,1.23,0.059,1.976,0.177s1.356,0.177,1.835,0.177c0.478,0,0.894-0.09,1.248-0.27c0.354-0.181,0.53-0.432,0.53-0.754
		c0-0.36-0.195-0.541-0.587-0.541c-0.391,0-0.668,0.174-0.829,0.521c-0.608-0.137-0.912-0.478-0.912-1.024
		c0-0.299,0.108-0.559,0.325-0.782c0.218-0.224,0.525-0.335,0.923-0.335c0.396,0,0.741,0.183,1.033,0.549
		c0.292,0.367,0.438,0.836,0.438,1.407c0,1.949-0.932,2.924-2.794,2.924c-0.534,0-0.977-0.025-1.323-0.074
		c0.099,0.496,0.149,0.95,0.149,1.359c0,1.279-0.36,2.272-1.081,2.98s-1.694,1.063-2.924,1.063c-2.013,0-3.512-0.4-4.499-1.202
		c-0.987-0.801-1.481-1.865-1.481-3.194s0.475-2.35,1.425-3.064c0.95-0.714,2.195-1.108,3.736-1.184v-0.056
		c-1.541-0.198-2.68-0.567-3.419-1.108c-0.739-0.54-1.108-1.365-1.108-2.478c0-1.111,0.419-1.949,1.257-2.514
		c0.84-0.565,2.01-0.848,3.513-0.848c1.005,0,1.847,0.242,2.523,0.727c0.676,0.484,1.016,1.13,1.016,1.937
		c0,0.41-0.115,0.73-0.345,0.959c-0.23,0.23-0.498,0.345-0.802,0.345s-0.562-0.093-0.772-0.28c-0.212-0.186-0.316-0.459-0.316-0.819
		c0.521-0.236,0.782-0.627,0.782-1.174c0-0.385-0.168-0.692-0.503-0.922c-0.335-0.229-0.795-0.345-1.378-0.345
		c-0.846,0-1.52,0.249-2.022,0.746c-0.503,0.496-0.754,1.161-0.754,1.993c0,1.192,0.35,2.071,1.052,2.636
		c0.702,0.565,1.729,0.885,3.083,0.959v0.41c-2.942,0.187-4.415,1.534-4.415,4.042c0,1.242,0.339,2.222,1.017,2.935
		c0.676,0.715,1.523,1.07,2.543,1.07c1.018,0,1.844-0.307,2.477-0.921s0.95-1.5,0.95-2.654c0-0.459-0.068-0.95-0.205-1.473
		c-0.174-0.024-0.41-0.062-0.708-0.111C170.057,43.594,169.609,43.539,169.263,43.539"/>
</g>
</svg>
