<?xml version="1.0" encoding="utf-8"?>
<!-- Generator: Adobe Illustrator 16.0.0, SVG Export Plug-In . SVG Version: 6.00 Build 0)  -->
<!DOCTYPE svg PUBLIC "-//W3C//DTD SVG 1.1//EN" "http://www.w3.org/Graphics/SVG/1.1/DTD/svg11.dtd">
<svg version="1.1" id="Layer_1" xmlns="http://www.w3.org/2000/svg" xmlns:xlink="http://www.w3.org/1999/xlink" x="0px" y="0px"
	 width="536.862px" height="77.58px" viewBox="0 0 536.862 77.58" enable-background="new 0 0 536.862 77.58" xml:space="preserve">
<g>
	<defs>
		<rect id="SVGID_1_" width="536.862" height="77.58"/>
	</defs>
	<clipPath id="SVGID_2_">
		<use xlink:href="#SVGID_1_"  overflow="visible"/>
	</clipPath>
	<path clip-path="url(#SVGID_2_)" fill="#1C3D6F" d="M471.98,17.123v4.246h0.12c0.238-0.398,0.558-0.867,0.957-1.405
		c0.397-0.538,0.927-1.056,1.585-1.555c0.657-0.498,1.455-0.928,2.392-1.286c0.937-0.359,2.064-0.538,3.379-0.538
		c1.396,0,2.563,0.149,3.499,0.448c0.938,0.299,1.714,0.678,2.333,1.137c0.618,0.458,1.116,0.967,1.495,1.525
		c0.379,0.558,0.727,1.117,1.047,1.674c0.598-1.076,1.265-1.923,2.004-2.542c0.737-0.617,1.485-1.096,2.242-1.435
		c0.758-0.338,1.475-0.558,2.154-0.658c0.677-0.099,1.234-0.149,1.674-0.149c2.272,0,4.027,0.339,5.264,1.016
		c1.235,0.679,2.132,1.486,2.691,2.422c0.558,0.938,0.887,1.925,0.986,2.962c0.1,1.036,0.15,1.913,0.15,2.631v16.328h1.754v0.838
		h-10.386v-0.838h1.335V23.402c0-1.674-0.311-2.96-0.927-3.858c-0.619-0.897-1.646-1.345-3.081-1.345
		c-0.439,0-0.978,0.119-1.615,0.358c-0.638,0.239-1.256,0.599-1.854,1.077c-0.599,0.478-1.106,1.107-1.525,1.884
		s-0.628,1.705-0.628,2.781v17.644h1.336v0.838h-10.028v-0.838h1.396V22.925c0-1.755-0.379-2.981-1.137-3.679
		c-0.758-0.697-1.595-1.046-2.512-1.046c-1.595,0-2.991,0.697-4.187,2.093c-0.32,0.399-0.599,0.807-0.837,1.226
		c-0.24,0.419-0.43,0.897-0.569,1.436c-0.14,0.538-0.239,1.156-0.299,1.853c-0.06,0.699-0.089,1.546-0.089,2.542v14.594h3.528v0.838
		h-12.58v-0.838h1.754V17.96h-1.754v-0.838H471.98z"/>
	<path clip-path="url(#SVGID_2_)" fill="#1C3D6F" d="M231.395,17.152c1.774,0.738,3.32,1.725,4.636,2.961
		c1.315,1.236,2.342,2.682,3.08,4.336c0.737,1.655,1.106,3.4,1.106,5.233c0,1.875-0.369,3.639-1.106,5.294
		c-0.738,1.655-1.765,3.101-3.08,4.336c-1.316,1.236-2.862,2.213-4.636,2.931c-1.774,0.717-3.699,1.076-5.771,1.076
		c-2.074,0-3.998-0.359-5.772-1.076c-1.775-0.718-3.32-1.694-4.636-2.931c-1.315-1.235-2.342-2.681-3.08-4.336
		c-0.738-1.655-1.106-3.419-1.106-5.294c0-1.833,0.368-3.578,1.106-5.233c0.738-1.654,1.765-3.1,3.08-4.336
		c1.316-1.236,2.861-2.223,4.636-2.961c1.774-0.737,3.698-1.107,5.772-1.107C227.695,16.045,229.621,16.416,231.395,17.152
		 M229.271,41.436c0.877-0.737,1.525-1.704,1.944-2.9c0.419-1.196,0.678-2.573,0.777-4.128c0.1-1.555,0.15-3.129,0.15-4.725
		c0-1.594-0.05-3.159-0.15-4.695c-0.099-1.534-0.358-2.901-0.777-4.097c-0.419-1.196-1.067-2.163-1.944-2.901
		c-0.878-0.737-2.093-1.106-3.648-1.106c-1.556,0-2.772,0.369-3.649,1.106c-0.877,0.738-1.525,1.705-1.944,2.901
		c-0.418,1.196-0.678,2.563-0.777,4.097c-0.1,1.536-0.15,3.101-0.15,4.695c0,1.596,0.05,3.17,0.15,4.725
		c0.099,1.555,0.359,2.932,0.777,4.128c0.419,1.196,1.067,2.163,1.944,2.9c0.877,0.738,2.093,1.106,3.649,1.106
		C227.178,42.542,228.394,42.174,229.271,41.436"/>
	<path clip-path="url(#SVGID_2_)" fill="#1C3D6F" d="M450.744,17.152c1.774,0.738,3.32,1.725,4.637,2.961
		c1.314,1.236,2.342,2.682,3.08,4.336c0.736,1.655,1.105,3.4,1.105,5.233c0,1.875-0.369,3.639-1.105,5.294
		c-0.738,1.655-1.766,3.101-3.08,4.336c-1.316,1.236-2.862,2.213-4.637,2.931c-1.773,0.717-3.698,1.076-5.771,1.076
		c-2.074,0-3.998-0.359-5.772-1.076c-1.774-0.718-3.319-1.694-4.636-2.931c-1.314-1.235-2.342-2.681-3.08-4.336
		c-0.737-1.655-1.105-3.419-1.105-5.294c0-1.833,0.368-3.578,1.105-5.233c0.738-1.654,1.766-3.1,3.08-4.336
		c1.316-1.236,2.861-2.223,4.636-2.961c1.774-0.737,3.698-1.107,5.772-1.107C447.046,16.045,448.971,16.416,450.744,17.152
		 M448.622,41.436c0.877-0.737,1.524-1.704,1.943-2.9c0.419-1.196,0.678-2.573,0.777-4.128c0.1-1.555,0.149-3.129,0.149-4.725
		c0-1.594-0.05-3.159-0.149-4.695c-0.1-1.534-0.358-2.901-0.777-4.097c-0.419-1.196-1.066-2.163-1.943-2.901
		c-0.879-0.737-2.094-1.106-3.648-1.106s-2.772,0.369-3.649,1.106c-0.877,0.738-1.524,1.705-1.943,2.901
		c-0.418,1.196-0.679,2.563-0.777,4.097c-0.1,1.536-0.15,3.101-0.15,4.695c0,1.596,0.051,3.17,0.15,4.725
		c0.099,1.555,0.359,2.932,0.777,4.128c0.419,1.196,1.066,2.163,1.943,2.9c0.877,0.738,2.095,1.106,3.649,1.106
		S447.743,42.174,448.622,41.436"/>
	<path clip-path="url(#SVGID_2_)" fill="#1C3D6F" d="M254.849,16.614v18.96c0,1.516,0.299,2.802,0.897,3.858
		c0.599,1.057,1.654,1.585,3.17,1.585c0.917,0,1.754-0.22,2.512-0.658c0.757-0.438,1.406-1.026,1.944-1.764
		c0.538-0.738,0.957-1.605,1.256-2.602c0.299-0.996,0.449-2.034,0.449-3.111v-15.43h-1.754v-0.838h9.051v24.821h1.754v0.838h-8.932
		v-4.845h-0.119c-0.32,0.878-0.798,1.645-1.435,2.303c-0.639,0.656-1.367,1.217-2.184,1.674c-0.817,0.459-1.685,0.799-2.601,1.017
		c-0.918,0.22-1.816,0.329-2.692,0.329c-2.792,0-4.925-0.606-6.4-1.824c-1.475-1.215-2.213-3.279-2.213-6.189V17.452h-1.814v-0.838
		H254.849z"/>
	<path clip-path="url(#SVGID_2_)" fill="#1C3D6F" d="M532.172,30.561c-2.446,0-4.43,1.984-4.43,4.43c0,1.957,1.271,3.615,3.03,4.201
		l-0.003,0.003c0.016,0.004,0.029,0.008,0.045,0.012c0.255,0.082,0.522,0.14,0.796,0.174c0.484,0.08,0.657,0.338,0.626,0.663
		c-0.078,0.515-0.654,1.185-1.385,1.602c-1.097,0.598-2.443,0.896-4.037,0.896c-1.795,0-3.19-0.378-4.187-1.137
		c-0.997-0.757-1.755-1.724-2.273-2.9c-0.519-1.175-0.837-2.491-0.957-3.947c-0.119-1.455-0.179-2.901-0.179-4.337V27.53h17.644
		c0-2.033-0.358-3.778-1.077-5.234c-0.717-1.454-1.635-2.64-2.751-3.558c-1.116-0.917-2.373-1.594-3.768-2.033
		c-1.396-0.439-2.792-0.659-4.187-0.659c-1.954,0-3.778,0.389-5.473,1.167c-1.696,0.777-3.17,1.794-4.426,3.05
		c-1.257,1.256-2.244,2.702-2.961,4.336c-0.718,1.636-1.077,3.31-1.077,5.024c0,2.154,0.379,4.078,1.137,5.772
		c0.757,1.696,1.804,3.131,3.141,4.306c1.335,1.178,2.9,2.074,4.694,2.692s3.729,0.927,5.803,0.927c1.754,0,3.249-0.25,4.484-0.748
		c1.236-0.498,2.273-1.115,3.111-1.854c0.537-0.473,0.993-0.975,1.383-1.498c0.015-0.019,0.029-0.039,0.043-0.057
		c0.062-0.084,0.126-0.166,0.184-0.25c0.231-0.327,0.442-0.676,0.619-1.052c0.008-0.014,0.008-0.03,0.013-0.045
		c0.152-0.303,0.287-0.599,0.402-0.89c0.022-0.055,0.052-0.104,0.072-0.161c0.083-0.19,0.151-0.387,0.207-0.59
		c0.013-0.043,0.032-0.08,0.044-0.124c-0.002-0.007-0.006-0.011-0.008-0.017c0.007-0.025,0.009-0.052,0.014-0.077
		c0.006-0.017,0.013-0.036,0.018-0.054l-0.006-0.002c0.063-0.294,0.104-0.597,0.104-0.91
		C536.602,32.545,534.618,30.561,532.172,30.561 M519.428,23.433c0.099-1.137,0.329-2.193,0.688-3.17
		c0.359-0.976,0.906-1.784,1.646-2.422c0.737-0.638,1.784-0.957,3.14-0.957c0.957,0,1.704,0.219,2.243,0.657
		c0.538,0.44,0.927,0.978,1.166,1.616s0.378,1.276,0.419,1.913c0.039,0.639,0.061,1.177,0.061,1.615v4.008h-9.57
		C519.258,25.656,519.327,24.569,519.428,23.433"/>
	<polygon clip-path="url(#SVGID_2_)" fill="#1C3D6F" points="317.791,42.605 317.791,17.785 308.68,17.785 308.68,18.622 
		310.494,18.622 310.494,42.605 308.68,42.605 308.68,43.443 319.605,43.443 319.605,42.605 	"/>
	<path clip-path="url(#SVGID_2_)" fill="#1C3D6F" d="M312.813,9.241l-0.004,0.003c0.017,0.004,0.03,0.008,0.045,0.012
		c0.256,0.082,0.523,0.14,0.796,0.174c1.025,0.168,0.69,1.126-0.128,1.853c-0.175,0.155-0.015,0.434,0.208,0.359
		c1.269-0.432,3.513-2.075,4.54-4.828c0.083-0.189,0.151-0.387,0.207-0.589c0.013-0.043,0.032-0.081,0.044-0.125
		c-0.002-0.006-0.006-0.011-0.007-0.017c0.08-0.335,0.128-0.683,0.128-1.042c0-2.447-1.983-4.431-4.43-4.431s-4.43,1.984-4.43,4.431
		C309.782,6.997,311.053,8.655,312.813,9.241"/>
	<path clip-path="url(#SVGID_2_)" fill="#1C3D6F" d="M304.125,22.041c-0.171-0.737-0.607-1.492-0.728-1.66
		c-1.394-2.206-3.802-3.393-5.039-3.621c-3.603-0.662-6.558-0.161-8.278,0.499h-8.615v0.838h1.695V42.08h-1.695v0.838h11.522V42.08
		h-2.53l-0.117-24.147c2.242-0.922,6.129-1.089,8.034-0.46c0.642,0.212,0.676,1.019-0.033,1.293c-0.262,0.09-0.51,0.201-0.744,0.333
		c-0.015,0.008-0.026,0.014-0.042,0.022l0.005,0.002c-1.603,0.934-2.507,2.816-2.106,4.732c0.501,2.395,2.848,3.93,5.242,3.429
		C303.091,26.783,304.678,24.424,304.125,22.041"/>
	<path clip-path="url(#SVGID_2_)" fill="#1C3D6F" d="M365.634,24.213c0.501,2.395,2.848,3.93,5.243,3.429
		c2.394-0.501,3.981-2.859,3.429-5.243c-0.171-0.737-0.607-1.491-0.728-1.66c-1.394-2.206-3.478-3.312-5.038-3.62
		c-2.064-0.408-3.919-0.406-5.451-0.205L363.085,0h-0.688c0,0-0.95,4.852-6.6,4.852v13.512c-1.763,0.174-3.58,0.081-4.704-0.29
		c-0.03-0.01-0.051-0.027-0.078-0.039v0.728c0.03,0.006,0.063,0.018,0.093,0.023c1.732,0.342,3.317,0.397,4.689,0.287v17.803
		c0,0.718,0.039,1.495,0.119,2.333c0.079,0.837,0.389,1.615,0.927,2.333c0.538,0.717,1.376,1.316,2.512,1.794
		c1.137,0.479,2.741,0.718,4.815,0.718c0.757,0,1.555-0.069,2.393-0.21c0.837-0.14,1.624-0.429,2.362-0.866
		c0.736-0.439,1.395-1.066,1.974-1.885c0.578-0.816,0.987-1.903,1.227-3.259l-0.897-0.18c-0.16,0.598-0.369,1.216-0.628,1.854
		c-0.26,0.638-0.589,1.207-0.987,1.704c-0.398,0.5-0.867,0.908-1.405,1.228c-0.538,0.318-1.188,0.478-1.944,0.478
		c-0.678,0-1.227-0.119-1.645-0.358c-0.419-0.239-0.738-0.568-0.957-0.986c-0.22-0.419-0.368-0.887-0.448-1.406
		c-0.08-0.518-0.119-1.076-0.119-1.675l-0.006-20.858c1.98-0.289,4.178-0.227,5.466,0.198c0.642,0.212,0.676,1.019-0.034,1.293
		c-0.261,0.09-0.51,0.201-0.743,0.333c-0.015,0.008-0.025,0.014-0.042,0.022l0.005,0.002
		C366.138,20.415,365.232,22.298,365.634,24.213"/>
	<path clip-path="url(#SVGID_2_)" fill="#1C3D6F" d="M344.944,30.046c-1.117-1.236-2.751-2.233-4.905-2.99l-5.083-1.736
		c-0.997-0.358-1.795-0.727-2.393-1.106c-0.599-0.378-1.037-0.757-1.316-1.137c-0.278-0.378-0.458-0.747-0.538-1.106
		s-0.12-0.677-0.12-0.957c0-1.355,0.549-2.382,1.646-3.08c1.097-0.698,2.479-1.047,4.3-1.047c0.43,0,0.833,0.027,1.22,0.066
		c1.011,0.134,1.456,0.57,0.72,1.151c-0.225,0.164-0.432,0.345-0.617,0.542c-0.011,0.012-0.021,0.02-0.033,0.033l0.004,0.001
		c-1.256,1.365-1.564,3.43-0.617,5.142c1.185,2.141,3.88,2.916,6.021,1.731s2.916-3.88,1.73-6.02
		c-0.174-0.315-0.384-0.597-0.616-0.851c-0.003-0.006,0-0.012-0.003-0.018c-0.039-0.041-0.084-0.076-0.125-0.116
		c-0.07-0.071-0.145-0.138-0.22-0.204c-0.057-0.05-0.111-0.1-0.17-0.147c-0.005-0.004-0.011-0.008-0.016-0.012
		c-1.62-1.314-3.908-1.876-5.689-2.065c-0.035-0.003-0.069-0.006-0.104-0.01c-0.805-0.079-1.501-0.084-1.97-0.047
		c-0.005,0,0.001,0.006-0.003,0.007c-1.309,0.052-2.648,0.253-3.751,0.667c-1.217,0.459-2.253,1.077-3.109,1.855
		c-0.858,0.777-1.525,1.685-2.004,2.721c-0.479,1.038-0.718,2.134-0.718,3.29c0,1.077,0.18,2.003,0.538,2.781
		c0.359,0.778,0.809,1.446,1.347,2.004c0.538,0.559,1.126,1.007,1.764,1.346c0.633,0.337,1.227,0.604,1.783,0.803h0.052
		l-0.041,0.004l4.845,1.795c1.077,0.398,1.923,0.787,2.542,1.166c0.618,0.379,1.086,0.768,1.406,1.166
		c0.318,0.399,0.527,0.788,0.627,1.166c0.101,0.38,0.15,0.748,0.15,1.107c0,1.157-0.209,2.044-0.628,2.661
		c-0.419,0.619-0.917,1.077-1.495,1.376c-0.579,0.299-1.166,0.469-1.766,0.508c-0.597,0.041-1.075,0.061-1.435,0.061
		c-1.396,0-2.572-0.248-3.529-0.747c-0.02-0.011-0.038-0.024-0.059-0.035c-0.295-0.357-0.3-0.748,0.231-1.043
		c0.246-0.125,0.479-0.269,0.691-0.432c0.013-0.01,0.024-0.018,0.038-0.026l-0.004-0.002c1.459-1.145,2.097-3.134,1.437-4.976
		c-0.823-2.304-3.359-3.503-5.663-2.678c-2.303,0.824-3.502,3.36-2.678,5.663c0.121,0.339,0.283,0.65,0.473,0.938
		c0,0.007-0.002,0.012-0.002,0.019c0.044,0.062,0.092,0.119,0.136,0.179c0.018,0.025,0.037,0.049,0.055,0.073
		c1.532,2.026,3.696,2.979,5.217,3.258c0.51,0.126,1.029,0.245,1.564,0.349c0.837,0.157,1.614,0.238,2.332,0.238
		c1.315,0,2.592-0.199,3.828-0.599c1.234-0.397,2.322-0.966,3.26-1.704c0.936-0.738,1.693-1.635,2.272-2.691
		c0.577-1.056,0.867-2.243,0.867-3.559C346.619,32.857,346.061,31.283,344.944,30.046"/>
	<polygon clip-path="url(#SVGID_2_)" fill="#1C3D6F" points="401.872,0.734 401.872,1.572 398.563,1.572 398.563,23.196 
		415.848,23.196 415.848,1.572 412.539,1.572 412.539,0.734 427.83,0.734 427.83,1.572 424.521,1.572 424.521,42.482 427.83,42.482 
		427.83,43.319 412.539,43.319 412.539,42.482 415.848,42.482 415.848,24.034 398.563,24.034 398.563,42.482 401.872,42.482 
		401.872,43.319 386.582,43.319 386.582,42.482 389.89,42.482 389.89,1.572 386.582,1.572 386.582,0.734 	"/>
	<path clip-path="url(#SVGID_2_)" fill="#1C3D6F" d="M187.725,1.572c-1.476,0-2.792,0.149-3.948,0.448
		c-1.156,0.3-2.193,0.818-3.11,1.556c-0.917,0.738-1.734,1.764-2.452,3.08c-0.718,1.315-1.375,2.99-1.974,5.024h-0.777V0.734h37.501
		V11.68h-0.777c-0.598-2.034-1.256-3.709-1.974-5.024c-0.718-1.316-1.535-2.342-2.452-3.08c-0.918-0.738-1.954-1.256-3.11-1.556
		c-1.157-0.299-2.473-0.448-3.948-0.448h-2.153v40.91h5.502v0.838h-17.484v-0.838h3.309V1.572H187.725z"/>
	<polygon clip-path="url(#SVGID_2_)" fill="#1C3D6F" points="119.477,42.436 98.2,14.742 92.626,20.62 92.146,20.62 92.146,1.441 
		97.66,1.441 97.66,0.601 80.14,0.601 80.14,1.441 83.456,1.441 83.456,42.436 80.14,42.436 80.14,43.274 95.462,43.274 
		95.462,42.436 92.146,42.436 92.146,21.458 92.626,21.458 108.569,42.436 105.373,42.436 105.373,43.274 123.193,43.274 
		123.193,42.436 	"/>
	<path clip-path="url(#SVGID_2_)" fill="#1C3D6F" d="M108.002,10.51l-0.004,0.004c0.02,0.005,0.035,0.009,0.053,0.014
		c0.307,0.099,0.627,0.168,0.955,0.21c1.229,0.201,0.827,1.349-0.154,2.22c-0.21,0.187-0.017,0.521,0.249,0.431
		c1.599-0.544,4.502-2.676,5.633-6.284c0.011-0.035,0.022-0.07,0.033-0.105c0.026-0.086,0.056-0.168,0.08-0.256
		c-0.002-0.008-0.007-0.014-0.009-0.021c0.097-0.402,0.154-0.819,0.154-1.251c0-2.933-2.378-5.312-5.312-5.312
		s-5.312,2.379-5.312,5.312C104.368,7.82,105.891,9.807,108.002,10.51"/>
	<polygon clip-path="url(#SVGID_2_)" fill="#1C3D6F" points="164.038,42.436 142.76,14.742 137.187,20.62 136.707,20.62 
		136.707,1.441 142.22,1.441 142.22,0.601 124.7,0.601 124.7,1.441 128.017,1.441 128.017,42.436 124.7,42.436 124.7,43.274 
		140.022,43.274 140.022,42.436 136.707,42.436 136.707,21.458 137.187,21.458 153.129,42.436 149.934,42.436 149.934,43.274 
		167.753,43.274 167.753,42.436 	"/>
	<path clip-path="url(#SVGID_2_)" fill="#1C3D6F" d="M152.563,10.51l-0.004,0.004c0.02,0.005,0.035,0.009,0.053,0.014
		c0.307,0.099,0.627,0.168,0.955,0.21c1.229,0.201,0.827,1.349-0.154,2.22c-0.21,0.187-0.017,0.521,0.249,0.431
		c1.599-0.544,4.502-2.676,5.633-6.284c0.011-0.035,0.022-0.07,0.033-0.105c0.026-0.086,0.056-0.168,0.08-0.256
		c-0.002-0.008-0.007-0.014-0.009-0.021c0.097-0.402,0.154-0.819,0.154-1.251c0-2.933-2.378-5.312-5.312-5.312
		s-5.312,2.379-5.312,5.312C148.929,7.82,150.452,9.807,152.563,10.51"/>
	<path clip-path="url(#SVGID_2_)" fill="#EAA14A" d="M28.022,0.299L0,35.964c0,0,7.107-1.877,13.14,11.531
		C19.173,60.903,26.95,70.288,44.783,66.4c0,0-11.263-2.683-18.637-20.648c0,0-4.157-10.174-11.129-12.394L40.492,0.299H28.022z"/>
	<path clip-path="url(#SVGID_2_)" fill="#EAA14A" d="M52.114,0.191L24.091,35.856c0,0,7.107-1.877,13.14,11.531
		c6.034,13.407,13.81,22.793,31.643,18.904c0,0-11.263-2.682-18.637-20.647c0,0-4.157-10.174-11.129-12.394L64.583,0.191H52.114z"/>
	<rect y="0.075" clip-path="url(#SVGID_2_)" fill="#EAA14A" width="11.907" height="11.907"/>
	<g clip-path="url(#SVGID_2_)">
		<text transform="matrix(1 0 0 1 80.1396 67.4248)"><tspan x="0" y="0" fill="#EAA14A" font-family="'Poppins-Medium'" font-size="17.4495" letter-spacing="3">BY KK H</tspan><tspan x="83.46" y="0" fill="#EAA14A" font-family="'Poppins-Medium'" font-size="17.4495" letter-spacing="3">O</tspan><tspan x="99.304" y="0" fill="#EAA14A" font-family="'Poppins-Medium'" font-size="17.4495" letter-spacing="3">TELS &amp; RES</tspan><tspan x="216.318" y="0" fill="#EAA14A" font-family="'Poppins-Medium'" font-size="17.4495" letter-spacing="3">O</tspan><tspan x="232.163" y="0" fill="#EAA14A" font-family="'Poppins-Medium'" font-size="17.4495" letter-spacing="3">RT</tspan><tspan x="257.9" y="0" fill="#EAA14A" font-family="'Poppins-Medium'" font-size="17.4495">S</tspan></text>
	</g>
</g>
</svg>
