<?xml version="1.0" encoding="utf-8"?>
<!-- Generator: Adobe Illustrator 16.0.0, SVG Export Plug-In . SVG Version: 6.00 Build 0)  -->
<!DOCTYPE svg PUBLIC "-//W3C//DTD SVG 1.1//EN" "http://www.w3.org/Graphics/SVG/1.1/DTD/svg11.dtd">
<svg version="1.1" id="Layer_1" xmlns="http://www.w3.org/2000/svg" xmlns:xlink="http://www.w3.org/1999/xlink" x="0px" y="0px"
	 width="403.734px" height="82.629px" viewBox="0 0 403.734 82.629" enable-background="new 0 0 403.734 82.629"
	 xml:space="preserve">
<g>
	<defs>
		<rect id="SVGID_1_" width="403.734" height="82.629"/>
	</defs>
	<clipPath id="SVGID_2_">
		<use xlink:href="#SVGID_1_"  overflow="visible"/>
	</clipPath>
	<path clip-path="url(#SVGID_2_)" fill="#1C3D6F" d="M264.025,54.502v1.047h-11.169v-5.534h-0.148
		c-0.798,2.094-1.907,3.702-3.328,4.824c-1.422,1.122-3.254,1.683-5.498,1.683c-2.443,0-4.662-0.474-6.656-1.422
		c-1.995-0.946-3.703-2.206-5.124-3.777c-1.421-1.569-2.531-3.377-3.328-5.421c-0.798-2.044-1.195-4.188-1.195-6.433
		c0-1.745,0.31-3.614,0.935-5.609c0.622-1.994,1.595-3.84,2.916-5.535c1.321-1.694,3.004-3.104,5.049-4.225
		c2.044-1.123,4.513-1.684,7.404-1.684c2.244,0,4.063,0.524,5.46,1.571c1.395,1.047,2.468,2.618,3.216,4.712h0.15V2.672h-2.343
		V1.624h11.468v52.878H264.025z M252.445,34.234c-0.175-1.895-0.535-3.639-1.084-5.236c-0.55-1.595-1.371-2.916-2.469-3.964
		c-1.097-1.047-2.567-1.57-4.412-1.57c-1.247,0-2.307,0.274-3.179,0.822c-0.873,0.549-1.583,1.447-2.131,2.693
		c-0.55,1.247-0.936,2.905-1.16,4.974c-0.224,2.069-0.336,4.599-0.336,7.591c0,2.442,0.061,4.648,0.186,6.619
		c0.124,1.97,0.399,3.652,0.823,5.049c0.423,1.396,1.047,2.468,1.87,3.216c0.823,0.747,1.932,1.121,3.328,1.121
		c2.094,0,3.727-0.534,4.899-1.608c1.171-1.07,2.057-2.418,2.654-4.038c0.6-1.62,0.96-3.365,1.085-5.234
		c0.124-1.871,0.188-3.578,0.188-5.124C252.708,37.898,252.62,36.13,252.445,34.234"/>
	<path clip-path="url(#SVGID_2_)" fill="#1C3D6F" d="M271.432,54.988V3.157h-2.193V2.11h11.318v29.02h0.148
		c0.199-0.449,0.535-1.109,1.011-1.983c0.473-0.871,1.184-1.744,2.131-2.617c0.947-0.872,2.156-1.633,3.628-2.281
		c1.47-0.648,3.328-0.973,5.572-0.973c3.291,0,5.845,0.948,7.666,2.843c1.818,1.895,2.729,4.487,2.729,7.778v21.091h2.269v1.047
		h-13.287v-1.047h1.894V31.354c0-2.094-0.424-3.627-1.271-4.6c-0.85-0.972-1.995-1.458-3.441-1.458c-1.196,0-2.344,0.288-3.44,0.86
		c-1.097,0.573-2.057,1.434-2.879,2.581s-1.484,2.568-1.982,4.262c-0.499,1.696-0.747,3.691-0.747,5.984v16.005h1.968v1.047h-13.286
		v-1.047H271.432z"/>
	<path clip-path="url(#SVGID_2_)" fill="#1C3D6F" d="M347.964,54.132V24.141h-2.192v-1.047h11.168v7.479h0.149
		c0.198-0.449,0.548-1.133,1.047-2.057c0.498-0.922,1.222-1.833,2.169-2.73c0.946-0.897,2.169-1.683,3.665-2.356
		s3.365-1.01,5.609-1.01c3.291,0,5.846,0.948,7.666,2.843s2.729,4.487,2.729,7.778v21.091h2.269v1.047h-13.287v-1.047h1.896V30.498
		c0-2.094-0.426-3.627-1.272-4.6c-0.848-0.972-1.995-1.458-3.44-1.458c-1.196,0-2.345,0.288-3.44,0.86
		c-1.097,0.573-2.058,1.434-2.879,2.581c-0.823,1.147-1.485,2.568-1.982,4.262c-0.499,1.696-0.748,3.691-0.748,5.984v16.005h1.97
		v1.047h-13.287v-1.047H347.964z"/>
	<polygon clip-path="url(#SVGID_2_)" fill="#1C3D6F" points="397.358,54.806 397.358,23.768 385.966,23.768 385.966,24.815 
		388.233,24.815 388.233,54.806 385.966,54.806 385.966,55.853 399.627,55.853 399.627,54.806 	"/>
	<path clip-path="url(#SVGID_2_)" fill="#1C3D6F" d="M391.133,13.084l-0.004,0.004c0.021,0.005,0.036,0.01,0.057,0.015
		c0.319,0.103,0.652,0.175,0.995,0.218c1.281,0.21,0.861,1.407-0.16,2.316c-0.219,0.195-0.02,0.543,0.259,0.449
		c1.588-0.54,4.393-2.595,5.678-6.037c0.104-0.237,0.188-0.484,0.259-0.737c0.017-0.054,0.04-0.101,0.055-0.155
		c-0.001-0.009-0.007-0.014-0.008-0.022c0.101-0.419,0.159-0.854,0.159-1.304c0-3.059-2.479-5.539-5.539-5.539
		c-3.059,0-5.539,2.48-5.539,5.539C387.344,10.278,388.933,12.352,391.133,13.084"/>
	<path clip-path="url(#SVGID_2_)" fill="#1C3D6F" d="M184.187,8.489c-0.002-0.008-0.007-0.013-0.009-0.021
		c0.101-0.419,0.161-0.854,0.161-1.304c0-3.06-2.48-5.54-5.539-5.54c-3.06,0-5.54,2.48-5.54,5.54c0,2.447,1.589,4.519,3.79,5.252
		l-0.005,0.004c0.021,0.006,0.037,0.01,0.057,0.015c0.32,0.103,0.653,0.175,0.995,0.218c1.281,0.21,0.862,1.407-0.161,2.317
		c-0.219,0.194-0.018,0.543,0.26,0.448c1.587-0.539,4.393-2.594,5.678-6.036c0.104-0.237,0.189-0.484,0.259-0.737
		C184.147,8.591,184.172,8.544,184.187,8.489"/>
	<path clip-path="url(#SVGID_2_)" fill="#1C3D6F" d="M172.052,24.146h2.268v46.875c0,1.83-0.577,3.232-1.683,3.674
		c-2.987,1.193-6.085,0.123-6.988-0.696c-0.656-0.595-0.496-1.45,0.469-1.608c0.343-0.043,0.676-0.115,0.995-0.218
		c0.02-0.005,0.036-0.009,0.057-0.016l-0.005-0.004c2.201-0.732,3.79-2.805,3.79-5.253c0-3.059-2.48-5.539-5.54-5.539
		c-3.059,0-5.539,2.48-5.539,5.539c0,0.45,0.06,0.886,0.161,1.305c-0.002,0.008-0.008,0.014-0.009,0.021
		c0.015,0.055,0.039,0.102,0.055,0.156c0.07,0.253,0.154,0.499,0.258,0.737c1.013,2.712,2.963,4.548,4.524,5.475
		c0.066,0.039,0.135,0.078,0.225,0.127c0.163,0.09,0.32,0.172,0.471,0.24c0.944,0.449,2.514,1.013,4.486,1.013
		c1.082,0,2.331-0.143,2.334-0.143c4.929-0.702,11.064-3.91,11.064-15.535V23.1h-11.393V24.146z"/>
	<path clip-path="url(#SVGID_2_)" fill="#1C3D6F" d="M163.331,54.454c0-0.05-0.002-21.536-0.002-21.536
		c0-2.094-0.363-3.826-1.085-5.198c-0.724-1.371-1.696-2.456-2.917-3.253c-1.222-0.797-2.668-1.346-4.338-1.646
		c-0.091-0.016-0.189-0.022-0.28-0.037l0.001-0.007c-6.217-1.314-10.033-0.405-11.611,0.019c-1.737,0.467-4.558,1.769-6.3,4.527
		c-0.151,0.211-0.696,1.155-0.91,2.076c-0.692,2.981,1.293,5.93,4.288,6.557c2.995,0.626,5.93-1.294,6.556-4.289
		c0.501-2.395-0.63-4.749-2.634-5.917l0.005-0.003c-0.019-0.009-0.034-0.017-0.052-0.026c-0.292-0.166-0.603-0.305-0.93-0.417
		c-0.887-0.343-0.769-1.187-0.041-1.617c0.817-0.482,3.244-0.974,7.109-0.571v0.001c1.363,0.145,2.494,0.759,3.041,1.684
		c0.648,1.097,0.973,2.318,0.973,3.664v10.667l-6.952,0.01c-1.438-0.005-4.264,0.129-6.473,0.824
		c-1.189,0.374-2.22,0.972-3.142,1.646c-0.923,0.673-1.671,1.495-2.243,2.468c-0.574,0.973-0.861,2.471-0.861,3.915
		c0,1.397,0.324,2.842,0.973,3.813c0.647,0.972,1.645,1.73,2.663,2.33c2.029,1.195,6.141,1.366,7.338,1.366
		c0.216,0,0.446,0,0.681-0.001v0.002h11.928h2.994h4.332v-1.052H163.331z M154.204,54.404c-0.025,0-4.131,0.002-4.778,0.002
		c-1.148,0-2.503-0.212-3.15-0.735c-0.649-0.524-1.135-1.159-1.459-1.907c-0.324-0.748-0.523-1.521-0.598-2.319
		c-0.075-0.797-0.112-1.495-0.112-2.094c0-1.496,0.236-3.706,0.71-4.654c0.047-0.095,0.105-0.194,0.17-0.299
		c0.878-1.412,2.474-2.214,4.136-2.214h5.081V54.404z"/>
	<path clip-path="url(#SVGID_2_)" fill="#1C3D6F" d="M219.653,54.454c0-0.05-0.002-21.536-0.002-21.536
		c0-2.094-0.362-3.826-1.085-5.198c-0.724-1.371-1.695-2.456-2.917-3.253c-1.222-0.797-2.668-1.346-4.338-1.646
		c-0.091-0.016-0.188-0.022-0.279-0.037l0.001-0.007c-6.218-1.314-10.033-0.405-11.611,0.019c-1.737,0.467-4.558,1.769-6.3,4.527
		c-0.151,0.211-0.696,1.155-0.91,2.076c-0.692,2.981,1.293,5.93,4.288,6.557c2.995,0.626,5.93-1.294,6.556-4.289
		c0.501-2.395-0.63-4.749-2.634-5.917l0.005-0.003c-0.019-0.009-0.034-0.017-0.052-0.026c-0.292-0.166-0.603-0.305-0.93-0.417
		c-0.887-0.343-0.769-1.187-0.041-1.617c0.817-0.482,3.244-0.974,7.109-0.571v0.001c1.363,0.145,2.494,0.759,3.041,1.684
		c0.648,1.097,0.973,2.318,0.973,3.664v10.667l-6.951,0.01c-1.438-0.005-4.265,0.129-6.474,0.824
		c-1.189,0.374-2.22,0.972-3.142,1.646c-0.923,0.673-1.671,1.495-2.243,2.468c-0.574,0.973-0.861,2.471-0.861,3.915
		c0,1.397,0.324,2.842,0.973,3.813c0.647,0.972,1.645,1.73,2.663,2.33c2.029,1.195,6.141,1.366,7.338,1.366
		c0.216,0,0.444,0,0.681-0.001v0.002h11.928h2.994h4.332v-1.052H219.653z M210.526,54.404c-0.024,0-4.131,0.002-4.777,0.002
		c-1.148,0-2.503-0.212-3.15-0.735c-0.648-0.524-1.135-1.159-1.459-1.907c-0.324-0.748-0.523-1.521-0.598-2.319
		c-0.075-0.797-0.112-1.495-0.112-2.094c0-1.496,0.236-3.706,0.71-4.654c0.047-0.095,0.105-0.194,0.17-0.299
		c0.878-1.412,2.475-2.214,4.136-2.214h5.081V54.404z"/>
	<path clip-path="url(#SVGID_2_)" fill="#1C3D6F" d="M339.856,54.454c0-0.05-0.002-21.536-0.002-21.536
		c0-2.094-0.363-3.826-1.085-5.198c-0.725-1.371-1.696-2.456-2.917-3.253c-1.223-0.797-2.668-1.346-4.339-1.646
		c-0.091-0.016-0.188-0.022-0.279-0.037l0.001-0.007c-6.217-1.314-10.033-0.405-11.611,0.019c-1.737,0.467-4.558,1.769-6.3,4.527
		c-0.151,0.211-0.696,1.155-0.91,2.076c-0.691,2.981,1.293,5.93,4.288,6.557c2.995,0.626,5.93-1.294,6.556-4.289
		c0.501-2.395-0.63-4.749-2.634-5.917l0.005-0.003c-0.019-0.009-0.034-0.017-0.052-0.026c-0.292-0.166-0.603-0.305-0.93-0.417
		c-0.888-0.343-0.77-1.187-0.041-1.617c0.816-0.482,3.244-0.974,7.108-0.571v0.001c1.363,0.145,2.494,0.759,3.041,1.684
		c0.648,1.097,0.974,2.318,0.974,3.664v10.667l-6.952,0.01c-1.438-0.005-4.264,0.129-6.474,0.824
		c-1.188,0.374-2.22,0.972-3.142,1.646c-0.923,0.673-1.671,1.495-2.243,2.468c-0.574,0.973-0.86,2.471-0.86,3.915
		c0,1.397,0.323,2.842,0.973,3.813c0.646,0.972,1.645,1.73,2.664,2.33c2.028,1.195,6.14,1.366,7.337,1.366
		c0.216,0,0.446,0,0.681-0.001v0.002h11.929h2.993h4.332v-1.052H339.856z M330.729,54.404c-0.025,0-4.131,0.002-4.778,0.002
		c-1.148,0-2.503-0.212-3.15-0.735c-0.648-0.524-1.135-1.159-1.459-1.907c-0.323-0.748-0.522-1.521-0.598-2.319
		c-0.075-0.797-0.112-1.495-0.112-2.094c0-1.496,0.236-3.706,0.71-4.654c0.047-0.095,0.105-0.194,0.17-0.299
		c0.879-1.412,2.475-2.214,4.137-2.214h5.081V54.404z"/>
	<path clip-path="url(#SVGID_2_)" fill="#1C3D6F" d="M125.806,49.2c0-1.963-0.314-11.385-0.314-14.101
		c0-1.854,0.627-9.247-13.486-9.247v-0.386c1.75-0.154,3.527-0.475,5.33-0.966c1.802-0.488,3.438-1.197,4.905-2.123
		c1.468-0.927,2.666-2.125,3.593-3.593c0.926-1.468,1.39-3.231,1.39-5.292c0-2.573-0.606-4.711-1.815-6.411
		c-1.211-1.7-2.743-3.052-4.597-4.056c-1.854-1.004-3.901-1.711-6.141-2.124c-2.24-0.411-4.365-0.618-6.373-0.618
		c-2.163,0-4.301,0.039-6.412,0.115c-2.112,0.078-4.249,0.117-6.411,0.117h-8.832v1.081h4.274v52.838h-4.274v1.082h19.749v-1.082
		h-4.274V26.548h5.098c2.421,0,3.776,0.464,5.116,1.391c1.339,0.926,0.783,10.189,0.783,18.336c0,11.594,15.276,10.81,18.997,9.831
		C130.427,56.106,125.806,54.004,125.806,49.2 M105.285,25.466h-3.167V1.596c0.566-0.05,1.132-0.102,1.699-0.155
		c0.566-0.05,1.133-0.077,1.7-0.077c1.957,0,3.565,0.259,4.828,0.773c1.261,0.515,2.252,1.301,2.974,2.356
		c0.721,1.056,1.236,2.394,1.545,4.017c0.309,1.623,0.464,3.567,0.464,5.833c0,1.389-0.091,2.755-0.271,4.094
		c-0.181,1.34-0.606,2.537-1.275,3.592c-0.67,1.056-1.673,1.892-3.012,2.51C109.43,25.157,107.603,25.466,105.285,25.466"/>
	<path clip-path="url(#SVGID_2_)" fill="#EAA14A" d="M31.699,0.253L0,40.597c0,0,8.038-2.123,14.864,13.044
		c6.825,15.167,15.622,25.784,35.794,21.386c0,0-12.74-3.033-21.082-23.357c0,0-4.702-11.508-12.589-14.02L45.804,0.253H31.699z"/>
	<path clip-path="url(#SVGID_2_)" fill="#EAA14A" d="M58.952,0.131L27.253,40.475c0,0,8.038-2.123,14.864,13.043
		c6.825,15.167,15.622,25.784,35.794,21.387c0,0-12.74-3.034-21.082-23.358c0,0-4.702-11.508-12.589-14.02L73.057,0.131H58.952z"/>
	<rect clip-path="url(#SVGID_2_)" fill="#EAA14A" width="13.469" height="13.469"/>
	<g clip-path="url(#SVGID_2_)">
		<text transform="matrix(1 0 0 1 190.8569 75.208)"><tspan x="0" y="0" fill="#EAA14A" font-family="'Poppins-Medium'" font-size="12.7511" letter-spacing="2">B</tspan><tspan x="9.716" y="0" fill="#EAA14A" font-family="'Poppins-Medium'" font-size="12.7511" letter-spacing="2">Y</tspan><tspan x="19.407" y="0" fill="#EAA14A" font-family="'Poppins-Medium'" font-size="12.7511" letter-spacing="2"> KK</tspan><tspan x="44.348" y="0" fill="#EAA14A" font-family="'Poppins-Medium'" font-size="12.7511" letter-spacing="2"> </tspan><tspan x="49.843" y="0" fill="#EAA14A" font-family="'Poppins-Medium'" font-size="12.7511" letter-spacing="2">HOT</tspan><tspan x="81.696" y="0" fill="#EAA14A" font-family="'Poppins-Medium'" font-size="12.7511" letter-spacing="2">E</tspan><tspan x="90.761" y="0" fill="#EAA14A" font-family="'Poppins-Medium'" font-size="12.7511" letter-spacing="2">LS</tspan><tspan x="108.676" y="0" fill="#EAA14A" font-family="'Poppins-Medium'" font-size="12.7511" letter-spacing="2"> &amp;</tspan><tspan x="124.678" y="0" fill="#EAA14A" font-family="'Poppins-Medium'" font-size="12.7511" letter-spacing="2"> RES</tspan><tspan x="158.022" y="0" fill="#EAA14A" font-family="'Poppins-Medium'" font-size="12.7511" letter-spacing="2">O</tspan><tspan x="169.6" y="0" fill="#EAA14A" font-family="'Poppins-Medium'" font-size="12.7511" letter-spacing="2">RT</tspan><tspan x="188.408" y="0" fill="#EAA14A" font-family="'Poppins-Medium'" font-size="12.7511">S</tspan></text>
	</g>
</g>
</svg>
